<svg xmlns="http://www.w3.org/2000/svg" viewBox="210.68 15.104 86.603 90"><path d="M297.282 50.104v30l-43.301 25v-30z" fill="#944"/><path d="M253.981 105.104l-43.301-25v-30l43.301 25z" fill="#c63"/><path d="M284.292 42.604l-43.301 25-17.321-10 43.301-25z" fill="#5cf"/><path d="M240.99 77.604l-17.321-10v-10l17.321 10z" fill="#4af"/><path d="M253.981 75.104l-12.99-7.5v-10l12.99 7.5z" fill="#1b7"/><path d="M253.981 65.104l43.301-25-12.99-7.5-43.301 25z" fill="#8d7"/><path d="M297.283 40.104v10l-43.301 25v-10z" fill="#286"/><path d="M223.67 57.604l-12.99-7.5v-10l12.99 7.5z" fill="#1b7"/><path d="M223.67 47.604l43.301-25-12.99-7.5-43.301 25z" fill="#8d7"/><path d="M266.971 22.604v10l-43.301 25v-10z" fill="#286"/></svg>