<svg xmlns="http://www.w3.org/2000/svg" viewBox="20.154 415.104 86.603 90"><path d="M20.154 450.104v30l43.301 25v-30z" fill="#c63"/><path d="M63.455 505.104l43.301-25v-30l-43.301 25z" fill="#944"/><path d="M20.154 450.104l43.301 25 30.311-17.5-43.301-25z" fill="#5cf"/><path d="M33.144 457.604v10l17.321 10v-10z" fill="#4af"/><path d="M76.446 477.604l17.321-10v-10l-17.321 10z" fill="#57d"/><path d="M93.766 457.604l12.99-7.5v-10l-12.99 7.5z" fill="#286"/><path d="M93.766 447.604l-30.311-17.5-30.311 17.5-12.99-7.5 43.301-25 43.301 25z" fill="#8d7"/><path d="M63.455 430.104v10l30.311 17.5v-10zm0 45l-12.99-7.5v-10l12.99 7.5z" fill="#1b7"/><path d="M63.455 465.104l12.99-7.5-12.99-7.5-12.99 7.5z" fill="#8d7"/><path d="M76.446 457.604v10l-12.99 7.5v-10z" fill="#286"/><path d="M33.144 457.604l-12.99-7.5v-10l12.99 7.5z" fill="#1b7"/><path d="M63.455 430.104v10l-30.311 17.5v-10z" fill="#286"/></svg>