<svg xmlns="http://www.w3.org/2000/svg" viewBox="115.417 415.104 86.603 90"><path d="M202.019 450.104v30l-43.301 25v-30z" fill="#944"/><path d="M158.718 505.104l-43.301-25v-30l43.301 25z" fill="#c63"/><path d="M128.407 457.604l30.311 17.5 43.301-25-30.311-17.5z" fill="#5cf"/><path d="M171.708 477.604l17.32-10v-10l-17.32 10z" fill="#57d"/><path d="M171.708 457.604v10l-12.99 7.5v-10z" fill="#286"/><path d="M189.028 457.604l-12.99-7.5v-10l12.99 7.5z" fill="#1b7"/><path d="M189.028 447.604l12.99-7.5-12.99-7.5-12.99 7.5z" fill="#8d7"/><path d="M202.019 440.104v10l-12.99 7.5v-10zm-30.31-17.5v10l-30.311 17.5v-10z" fill="#286"/><path d="M158.718 465.104l12.99-7.5-30.311-17.5 30.311-17.5-12.99-7.5-43.301 25z" fill="#8d7"/><path d="M158.718 475.104l-43.301-25v-10l43.301 25z" fill="#1b7"/></svg>