<svg xmlns="http://www.w3.org/2000/svg" viewBox="686.994 415.104 86.603 90"><path d="M686.993 450.104v30l43.301 25v-30z" fill="#c63"/><path d="M730.295 505.104l43.301-25v-30l-43.301 25z" fill="#944"/><path d="M699.984 442.604l43.301 25 30.311-17.5-43.301-25z" fill="#5cf"/><path d="M743.286 477.604l30.311-17.5v-10l-30.311 17.5z" fill="#57d"/><path d="M730.294 475.104l12.99-7.5v-10l-12.99 7.5z" fill="#286"/><path d="M730.294 465.104l-43.301-25 12.99-7.5 43.301 25z" fill="#8d7"/><path d="M686.993 440.104v10l43.301 25v-10zm43.301 0l-12.99-7.5v-10l12.99 7.5z" fill="#1b7"/><path d="M730.294 430.104l12.99-7.5-12.99-7.5-12.99 7.5z" fill="#8d7"/><path d="M743.285 422.604v10l-12.99 7.5v-10z" fill="#286"/><path d="M760.605 457.604l-12.99-7.5v-10l12.99 7.5z" fill="#1b7"/><path d="M760.605 447.604l12.99-7.5-12.99-7.5-12.99 7.5z" fill="#8d7"/><path d="M773.596 440.104v10l-12.99 7.5v-10z" fill="#286"/></svg>