<svg xmlns="http://www.w3.org/2000/svg" viewBox="20.154 525.104 86.603 80"><path d="M20.154 550.104v30l43.301 25v-30z" fill="#c63"/><path d="M63.456 605.104l43.301-25v-30l-43.301 25z" fill="#944"/><path d="M20.154 550.104l43.301 25 43.301-25-43.301-25z" fill="#5cf"/><path d="M93.766 567.604l12.99-7.5v-10l-12.99 7.5z" fill="#57d"/><path d="M20.154 550.104v10l12.99 7.5v-10zm30.311 17.5v10l12.99 7.5v-10z" fill="#4af"/><path d="M63.455 585.104l12.99-7.5v-10l-12.99 7.5z" fill="#57d"/><path d="M76.445 567.604l17.321-10v-10l-17.321 10z" fill="#286"/><path d="M63.455 550.104l-12.99 7.5-17.321-10 30.311-17.5 30.311 17.5-17.321 10z" fill="#8d7"/><path d="M33.144 547.604v10l17.321 10v-10z" fill="#1b7"/><path d="M50.465 567.604l12.99-7.5v-10l-12.99 7.5z" fill="#286"/><path d="M63.455 550.104v10l12.99 7.5v-10z" fill="#1b7"/></svg>