<svg xmlns="http://www.w3.org/2000/svg" viewBox="115.417 522.604 86.603 82.5"><path d="M202.019 550.104v30l-43.301 25v-30z" fill="#944"/><path d="M158.718 605.104l-43.301-25v-30l43.301 25z" fill="#c63"/><path d="M202.019 550.104l-43.301 25-43.301-25 43.301-25z" fill="#5cf"/><path d="M158.718 585.104l-43.301-25v-10l43.301 25z" fill="#4af"/><path d="M171.708 567.604v10l-12.99 7.5v-10zm30.311-17.5v10l-12.99 7.5v-10z" fill="#57d"/><path d="M189.029 532.604v10l-17.32 10v-10z" fill="#286"/><path d="M171.709 567.604l-30.311-17.5v-10l30.311 17.5z" fill="#1b7"/><path d="M171.709 557.604l17.321-10-12.99-7.5 12.99-7.5-17.32-10-30.311 17.5z" fill="#8d7"/><path d="M189.029 547.604v10l-17.321 10v-10z" fill="#286"/></svg>