<svg xmlns="http://www.w3.org/2000/svg" viewBox="20.221 622.661 86.603 82.5"><path d="M20.221 650.161v30l43.301 25v-30z" fill="#c63"/><path d="M63.522 705.161l43.301-25v-30l-43.301 25z" fill="#944"/><path d="M20.221 650.161l43.301 25 43.301-25-43.301-25z" fill="#5cf"/><path d="M33.211 657.661v10l30.311 17.5v-10z" fill="#4af"/><path d="M63.522 685.161l12.99-7.5v-10l-12.99 7.5z" fill="#57d"/><path d="M76.512 667.661l30.311-17.5v-10l-30.311 17.5z" fill="#286"/><path d="M76.512 657.661l-30.311-17.5-12.99 7.5-12.99-7.5 30.311-17.5 30.311 17.5 12.99-7.5 12.99 7.5z" fill="#8d7"/><path d="M46.201 640.161v10l30.311 17.5v-10z" fill="#1b7"/><path d="M33.211 657.661l12.99-7.5v-10l-12.99 7.5z" fill="#286"/><path d="M20.22 640.161v10l12.99 7.5v-10z" fill="#1b7"/></svg>