<svg xmlns="http://www.w3.org/2000/svg" viewBox="305.942 615.104 86.603 90"><path d="M392.545 650.104v30l-43.301 25v-30z" fill="#944"/><path d="M349.244 705.104l-43.301-25v-30l43.301 25z" fill="#c63"/><path d="M305.942 650.104l43.301 25 43.301-25-43.301-25z" fill="#5cf"/><path d="M305.942 650.104v10l30.311 17.5v-10z" fill="#4af"/><path d="M379.554 667.604l12.991-7.5v-10l-12.991 7.5z" fill="#57d"/><path d="M349.244 675.104l-12.99-7.5v-10l12.99 7.5z" fill="#1b7"/><path d="M362.234 622.604v10l-12.99 7.5v-10zm17.32 25v10l-30.311 17.5v-10z" fill="#286"/><path d="M349.243 660.104l-30.311-17.5v-10l30.311 17.5z" fill="#1b7"/><path d="M349.243 665.104l-12.99-7.5 12.99-7.5-30.311-17.5 30.311-17.5 12.99 7.5-12.99 7.5 30.311 17.5z" fill="#8d7"/></svg>