<svg xmlns="http://www.w3.org/2000/svg" viewBox="496.468 615.104 86.603 90"><path d="M583.07 650.104v30l-43.301 25v-30z" fill="#944"/><path d="M539.769 705.104l-43.301-25v-30l43.301 25z" fill="#c63"/><path d="M583.07 650.104l-43.301 25-30.311-17.5 43.301-25z" fill="#5cf"/><path d="M552.759 667.604v10l-12.99 7.5v-10z" fill="#57d"/><path d="M539.769 685.104l-30.311-17.5v-10l30.311 17.5z" fill="#4af"/><path d="M583.07 650.104v10l-12.99 7.5v-10z" fill="#57d"/><path d="M509.458 657.604l-12.99-7.5v-10l12.99 7.5z" fill="#1b7"/><path d="M552.759 622.604v10l-43.301 25v-10z" fill="#286"/><path d="M509.458 647.604l12.99-7.5 30.311 17.5 17.321-10-30.311-17.5 12.99-7.5-12.99-7.5-43.301 25z" fill="#8d7"/><path d="M552.759 667.604l-30.311-17.5v-10l30.311 17.5z" fill="#1b7"/><path d="M570.08 647.604v10l-17.321 10v-10z" fill="#286"/></svg>