<svg xmlns="http://www.w3.org/2000/svg" viewBox="591.731 622.604 86.603 82.5"><path d="M678.333 650.104v30l-43.301 25v-30z" fill="#944"/><path d="M635.032 705.104l-43.301-25v-30l43.301 25z" fill="#c63"/><path d="M665.343 642.604l-43.301 25-30.311-17.5 43.301-25z" fill="#5cf"/><path d="M622.041 677.604l-30.311-17.5v-10l30.311 17.5z" fill="#4af"/><path d="M635.032 675.104l-12.99-7.5v-10l12.99 7.5z" fill="#1b7"/><path d="M678.334 640.104v10l-43.301 25v-10z" fill="#286"/><path d="M635.032 660.104l-30.311-17.5v-10l30.311 17.5z" fill="#1b7"/><path d="M635.032 665.104l43.301-25-12.99-7.5-12.99 7.5-30.311-17.5-17.321 10 30.311 17.5-12.99 7.5z" fill="#8d7"/></svg>