<svg xmlns="http://www.w3.org/2000/svg" viewBox="305.942 722.604 86.603 82.5"><path d="M305.942 750.104v30l43.301 25v-30z" fill="#c63"/><path d="M349.243 805.104l43.301-25v-30l-43.301 25z" fill="#944"/><path d="M305.942 750.104l43.301 25 43.301-25-43.301-25z" fill="#5cf"/><path d="M349.243 775.104v10l-12.99-7.5v-10z" fill="#4af"/><path d="M349.243 785.104l30.311-17.5v-10l-30.311 17.5z" fill="#57d"/><path d="M349.244 730.104v10l30.311 17.5v-10z" fill="#1b7"/><path d="M392.545 740.104v10l-12.99 7.5v-10z" fill="#286"/><path d="M349.244 730.104l12.99-7.5 30.311 17.5-12.99 7.5z" fill="#8d7"/><path d="M305.942 740.104v10l30.311 17.5v-10z" fill="#1b7"/><path d="M349.243 750.104v10l-12.99 7.5v-10z" fill="#286"/><path d="M305.942 740.104l12.99-7.5 30.311 17.5-12.99 7.5z" fill="#8d7"/></svg>