<svg xmlns="http://www.w3.org/2000/svg" viewBox="401.205 722.604 86.603 82.5"><path d="M401.205 750.104v30l43.301 25v-30z" fill="#c63"/><path d="M444.506 805.104l43.301-25v-30l-43.301 25z" fill="#944"/><path d="M401.205 750.104l43.301 25 43.301-25-43.301-25z" fill="#5cf"/><path d="M431.516 767.604v10l-17.321-10v-10z" fill="#4af"/><path d="M487.808 760.104l-12.99 7.5v-10l12.99-7.5z" fill="#57d"/><path d="M431.516 757.604v10l12.99 7.5v-10z" fill="#1b7"/><path d="M474.817 747.604v10l-30.311 17.5v-10z" fill="#286"/><path d="M474.817 747.604l-12.99-7.5-30.311 17.5 12.99 7.5z" fill="#8d7"/><path d="M401.205 740.104v10l12.99 7.5v-10z" fill="#1b7"/><path d="M444.506 730.104v10l-30.311 17.5v-10z" fill="#286"/><path d="M444.506 730.104l-12.99-7.5-30.311 17.5 12.99 7.5z" fill="#8d7"/></svg>