<svg xmlns="http://www.w3.org/2000/svg" viewBox="496.468 722.604 86.603 82.5"><path d="M496.468 750.104v30l43.301 25v-30z" fill="#c63"/><path d="M539.769 805.104l43.301-25v-30l-43.301 25z" fill="#944"/><path d="M496.468 750.104l43.301 25 43.301-25-43.301-25z" fill="#5cf"/><path d="M509.458 757.604v10l-12.99-7.5v-10z" fill="#4af"/><path d="M552.76 777.604l17.321-10v-10l-17.321 10z" fill="#57d"/><path d="M539.769 730.104v10l30.311 17.5v-10z" fill="#1b7"/><path d="M583.07 740.104v10l-12.99 7.5v-10z" fill="#286"/><path d="M539.769 730.104l12.99-7.5 30.311 17.5-12.99 7.5z" fill="#8d7"/><path d="M509.458 747.604v10l30.311 17.5v-10z" fill="#1b7"/><path d="M552.759 757.604v10l-12.99 7.5v-10z" fill="#286"/><path d="M509.458 747.604l12.99-7.5 30.311 17.5-12.99 7.5z" fill="#8d7"/></svg>