<svg xmlns="http://www.w3.org/2000/svg" viewBox="9.584 9.237 86.603 90"><path d="M9.588 44.236v30l43.301 25v-20z" fill="#c63"/><path d="M52.885 99.238l43.301-25v-20l-43.301 25z" fill="#944"/><path d="M52.885 79.238l-43.301-35 43.301-25 43.301 35z" fill="#e94"/><path d="M52.885 89.238l-43.301-35v-10l43.301 35z" fill="#4af"/><path d="M96.186 54.238l-43.301 25-43.301-35 43.301-25z" fill="#5cf"/><path d="M52.885 89.238l43.301-25v-10l-43.301 25z" fill="#57d"/><path d="M52.884 37.237l-12.99-10.5v-10l12.99 10.5z" fill="#1b7"/><path d="M52.884 27.237l12.99-7.5-12.99-10.5-12.99 7.5z" fill="#8d7"/><path d="M65.875 19.737v10l-12.99 7.5v-10z" fill="#286"/><path d="M65.875 61.737l17.32-10-43.301-35-17.32 10z" fill="#e94"/><path d="M22.573 26.737v10l43.301 35v-10z" fill="#c63"/><path d="M65.875 61.737v20l17.32-10v-20z" fill="#944"/><path d="M22.574 54.737l-12.99-10.5v-10l12.99 10.5z" fill="#1b7"/><path d="M22.574 44.737l12.99-7.5-12.99-10.5-12.99 7.5z" fill="#8d7"/><path d="M35.565 37.237v10l-12.99 7.5v-10z" fill="#286"/><path d="M22.574 64.737l-12.99-10.5v-10l12.99 10.5z" fill="#c63"/></svg>