<svg xmlns="http://www.w3.org/2000/svg" viewBox="200.109 29.237 86.603 70"><path d="M200.109 64.238v10l43.301 25z" fill="#4af"/><path d="M243.41 99.238l-43.301-35 43.301-25 43.301 35z" fill="#5cf"/><path d="M243.41 57.237l-12.99-10.5v-10l12.99 10.5z" fill="#1b7"/><path d="M243.41 47.237l12.99-7.5-12.99-10.5-12.99 7.5z" fill="#8d7"/><path d="M256.401 39.737v10l-12.99 7.5v-10z" fill="#286"/><path d="M256.401 81.737l17.32-10-43.301-35-17.32 10z" fill="#e94"/><path d="M213.099 46.737v10l43.301 35v-10z" fill="#c63"/><path d="M256.401 81.737v10l17.32-10v-10z" fill="#944"/><path d="M213.1 74.737l-12.99-10.5v-10l12.99 10.5z" fill="#1b7"/><path d="M213.1 64.737l12.99-7.5-12.99-10.5-12.99 7.5z" fill="#8d7"/><path d="M226.091 57.237v10l-12.99 7.5v-10z" fill="#286"/><path d="M213.1 81.737l-12.99-7.5v-10l12.99 10.5z" fill="#c63"/></svg>