<svg xmlns="http://www.w3.org/2000/svg" viewBox="295.372 16.738 86.603 82.5"><path d="M295.377 44.236v30l43.301 25v-20z" fill="#c63"/><path d="M338.674 99.238l43.301-25v-20l-43.301 25z" fill="#944"/><path d="M338.674 79.238l-43.301-35 43.301-25 43.301 35z" fill="#e94"/><path d="M338.674 89.238l-43.301-35v-10l43.301 35z" fill="#4af"/><path d="M381.975 54.238l-43.301 25-43.301-35 43.301-25z" fill="#5cf"/><path d="M338.674 89.238l43.301-25v-10l-43.301 25z" fill="#57d"/><path d="M368.983 61.738l-12.99-10.5v-10l12.99 10.5z" fill="#1b7"/><path d="M368.983 51.738l12.99-7.5-12.99-10.5-12.99 7.5z" fill="#8d7"/><path d="M381.974 44.238v10l-12.99 7.5v-10z" fill="#286"/><path d="M351.663 61.738l17.32-10-43.301-35-17.32 10z" fill="#e94"/><path d="M308.361 26.738v10l43.301 35v-10z" fill="#c63"/><path d="M351.663 61.738v10l17.32-10v-10z" fill="#944"/><path d="M338.672 79.238l-12.99-10.5v-10l12.99 10.5z" fill="#1b7"/><path d="M338.672 69.238l12.99-7.5-12.99-10.5-12.99 7.5z" fill="#8d7"/><path d="M351.663 61.738v10l-12.99 7.5v-10z" fill="#286"/><path d="M338.673 89.238l-12.99-10.5v-10l12.99 10.5z" fill="#c63"/><path d="M338.673 79.238v10l43.301-25v-10z" fill="#944"/></svg>