<svg xmlns="http://www.w3.org/2000/svg" viewBox="200.109 129.237 86.603 70.001"><path d="M286.712 174.237v-10l-43.301 35.001z" fill="#57d"/><path d="M243.41 199.237l-43.301-25 43.301-35 43.301 25z" fill="#5cf"/><path d="M243.41 157.237l-12.99-7.5v-10l12.99 7.5z" fill="#1b7"/><path d="M243.41 147.237l12.99-10.5-12.99-7.5-12.99 10.5z" fill="#8d7"/><path d="M256.401 136.737v10l-12.99 10.5v-10z" fill="#286"/><path d="M230.42 181.737l-17.32-10 43.301-35 17.32 10z" fill="#e94"/><path d="M213.099 171.737v10l17.321 10v-10z" fill="#c63"/><path d="M230.42 181.737v10l43.301-35v-10z" fill="#944"/><path d="M273.721 174.737l-12.99-7.5v-10l12.99 7.5z" fill="#1b7"/><path d="M273.721 164.737l12.99-10.5-12.99-7.5-12.99 10.5z" fill="#8d7"/><path d="M286.712 154.237v10l-12.99 10.5v-10z" fill="#286"/><path d="M273.722 174.737v7l12.99-7.5v-10z" fill="#944"/></svg>