<svg xmlns="http://www.w3.org/2000/svg" viewBox="295.371 116.737 86.604 82.501"><path d="M295.372 154.238v20l43.301 25v-20z" fill="#c63"/><path d="M338.673 199.238l43.301-25v-30l-43.3 35z" fill="#944"/><path d="M338.672 179.238l-43.301-25 43.301-35 43.301 25z" fill="#e94"/><path d="M338.674 179.238l-43.301-25v10l43.301 25z" fill="#4af"/><path d="M381.975 144.238l-43.301 35-43.301-25 43.301-35z" fill="#5cf"/><path d="M338.674 189.238l43.301-35v-10l-43.301 35z" fill="#57d"/><path d="M308.362 161.737l-12.99-7.5v-10l12.99 7.5z" fill="#1b7"/><path d="M308.362 151.737l12.99-10.5-12.99-7.5-12.99 10.5z" fill="#8d7"/><path d="M321.353 141.237v10l-12.99 10.5v-10z" fill="#286"/><path d="M325.682 161.737l-17.32-10 43.301-35 17.32 10z" fill="#e94"/><path d="M308.361 151.737v10l17.321 10v-10z" fill="#c63"/><path d="M325.682 161.737v10l43.301-35v-10z" fill="#944"/><path d="M338.673 179.237l-12.99-7.5v-10l12.99 7.5z" fill="#1b7"/><path d="M338.673 169.237l12.99-10.5-12.99-7.5-12.99 10.5z" fill="#8d7"/><path d="M351.664 158.737v10l-12.99 10.5v-10z" fill="#286"/><path d="M338.673 179.237v10l12.99-10.5v-10z" fill="#944"/><path d="M295.372 154.237v10l43.301 25v-10z" fill="#c63"/></svg>