<svg xmlns="http://www.w3.org/2000/svg" viewBox="485.897 136.737 86.603 62.501"><path d="M572.501 174.237v-10L529.2 199.238z" fill="#57d"/><path d="M529.199 199.237l-43.301-25 43.301-35 43.301 25z" fill="#5cf"/><path d="M498.888 181.737l-12.99-7.5v-10l12.99 7.5z" fill="#1b7"/><path d="M498.888 171.737l12.99-10.5-12.99-7.5-12.99 10.5z" fill="#8d7"/><path d="M511.879 161.237v10l-12.99 10.5v-10z" fill="#286"/><path d="M516.208 181.737l-17.32-10 43.301-35 17.32 10z" fill="#e94"/><path d="M498.887 171.737v10l17.321 10v-10z" fill="#c63"/><path d="M516.208 181.737v10l43.301-35v-10z" fill="#944"/><path d="M529.199 199.237l-12.99-7.5v-10l12.99 7.5z" fill="#1b7"/><path d="M529.199 189.237l12.99-10.5-12.99-7.5-12.99 10.5z" fill="#8d7"/><path d="M542.19 178.737v10l-12.99 10.5v-10z" fill="#286"/><path d="M529.199 199.237l12.99-7.5v-3z" fill="#944"/></svg>