<svg xmlns="http://www.w3.org/2000/svg" viewBox="104.847 236.737 86.603 62.501"><path d="M104.847 264.238l.001 10 43.301 25v-20z" fill="#c63"/><path d="M148.149 299.238l43.301-25v-20l-43.301 25z" fill="#944"/><path d="M148.148 279.238l-43.301-15 43.301-25 43.301 15z" fill="#e94"/><path d="M148.148 289.238l-43.301-15v-10l43.301 15z" fill="#4af"/><path d="M191.449 254.238l-43.301 25-43.301-15 43.301-25z" fill="#5cf"/><path d="M148.148 289.238l43.301-25v-10l-43.301 25z" fill="#57d"/><path d="M178.458 261.737l-12.99-4.5v-10l12.99 4.5z" fill="#1b7"/><path d="M178.458 251.737l12.99-7.5-12.99-4.5-12.99 7.5z" fill="#8d7"/><path d="M191.449 244.237v10l-12.99 7.5v-10z" fill="#286"/><path d="M161.138 261.737l17.32-10-43.301-15-17.32 10z" fill="#e94"/><path d="M117.836 246.737v10l43.301 15v-10z" fill="#c63"/><path d="M161.138 261.737v10l17.32-10v-10z" fill="#944"/><path d="M148.147 279.237l-12.99-4.5v-10l12.99 4.5z" fill="#1b7"/><path d="M148.147 269.237l12.99-7.5-12.99-4.5-12.99 7.5z" fill="#8d7"/><path d="M161.138 261.737v10l-12.99 7.5v-10z" fill="#286"/><path d="M148.148 279.237v10l43.301-25v-10z" fill="#944"/><path d="M135.157 274.737v10l12.99 4.5v-10z" fill="#c63"/></svg>