<svg xmlns="http://www.w3.org/2000/svg" viewBox="390.635 229.238 86.604 70"><path d="M390.635 264.238l.001 10 43.301 25v-20z" fill="#c63"/><path d="M433.937 299.238l43.301-25v-20l-43.301 25z" fill="#944"/><path d="M433.936 279.238l-43.301-15 43.301-25 43.301 15z" fill="#e94"/><path d="M433.937 289.238l-43.301-15v-10l43.301 15z" fill="#4af"/><path d="M477.238 254.238l-43.301 25-43.301-15 43.301-25z" fill="#5cf"/><path d="M433.937 289.238l43.301-25v-10l-43.301 25z" fill="#57d"/><path d="M433.936 251.237l-12.99-4.5v-10l12.99 4.5z" fill="#1b7"/><path d="M433.936 241.237l12.99-7.5-12.99-4.5-12.99 7.5z" fill="#8d7"/><path d="M446.927 233.737v10l-12.99 7.5v-10z" fill="#286"/><path d="M446.926 261.737l17.32-10-43.301-15-17.32 10z" fill="#e94"/><path d="M403.624 246.737v10l43.301 15v-10z" fill="#c63"/><path d="M446.926 261.737v20l17.32-10v-20z" fill="#944"/><path d="M403.625 268.737l-12.99-4.5v-10l12.99 4.5z" fill="#1b7"/><path d="M403.625 258.737l12.99-7.5-12.99-4.5-12.99 7.5z" fill="#8d7"/><path d="M416.616 251.237v10l-12.99 7.5v-10z" fill="#286"/><path d="M390.635 264.237v10l12.99 4.5v-10z" fill="#c63"/></svg>