<svg xmlns="http://www.w3.org/2000/svg" viewBox="485.897 239.238 86.604 60"><path d="M485.899 274.238l43.301 25v-10z" fill="#4af"/><path d="M529.2 299.238l43.301-25v-10l-43.301 25z" fill="#57d"/><path d="M529.199 289.238l-43.301-15 43.301-25 43.301 15z" fill="#5cf"/><path d="M529.199 261.237l-12.99-4.5v-10l12.99 4.5z" fill="#1b7"/><path d="M529.199 251.237l12.99-7.5-12.99-4.5-12.99 7.5z" fill="#8d7"/><path d="M542.19 243.737v10l-12.99 7.5v-10z" fill="#286"/><path d="M542.189 271.737l17.32-10-43.301-15-17.32 10z" fill="#e94"/><path d="M498.887 256.737v10l43.301 15v-10z" fill="#c63"/><path d="M542.189 271.737v20l17.32-10v-20z" fill="#944"/><path d="M498.888 278.737l-12.99-4.5v-10l12.99 4.5z" fill="#1b7"/><path d="M498.888 268.737l12.99-7.5-12.99-4.5-12.99 7.5z" fill="#8d7"/><path d="M511.879 261.237v10l-12.99 7.5v-10z" fill="#286"/><path d="M485.898 274.237l12.99 7.5v-3z" fill="#c63"/></svg>