<svg xmlns="http://www.w3.org/2000/svg" viewBox="9.584 326.737 86.604 72.501"><path d="M9.585 344.238v30l43.301 25v-30z" fill="#c63"/><path d="M52.886 399.238l43.301-25v-20l-43.301 15z" fill="#944"/><path d="M52.885 369.238l-43.301-25 43.302-15 43.301 25z" fill="#e94"/><path d="M52.885 379.237l-43.301-25v-10l43.301 25z" fill="#4af"/><path d="M96.186 354.237l-43.301 15-43.301-25 43.301-15z" fill="#5cf"/><path d="M52.885 379.237l43.301-15v-10l-43.301 15z" fill="#57d"/><path d="M22.574 351.737l-12.99-7.5v-10l12.99 7.5z" fill="#1b7"/><path d="M22.574 341.737l12.99-4.5-12.99-7.5-12.99 4.5z" fill="#8d7"/><path d="M35.565 337.237v10l-12.99 4.5v-10z" fill="#286"/><path d="M39.894 351.737l-17.32-10 43.301-15 17.32 10z" fill="#e94"/><path d="M22.573 341.737v10l17.321 10v-10z" fill="#c63"/><path d="M39.894 351.737v10l43.301-15v-10z" fill="#944"/><path d="M52.884 369.237l-12.99-7.5v-10l12.99 7.5z" fill="#1b7"/><path d="M52.884 359.237l12.99-4.5-12.99-7.5-12.99 4.5z" fill="#8d7"/><path d="M65.875 354.737v10l-12.99 4.5v-10z" fill="#286"/><path d="M9.583 344.237v10l43.301 25v-10z" fill="#c63"/><path d="M52.885 369.237v10l12.99-4.5v-10z" fill="#944"/></svg>