<svg xmlns="http://www.w3.org/2000/svg" viewBox="295.372 319.238 86.603 80"><path d="M295.373 344.238v30l43.301 25v-30z" fill="#c63"/><path d="M338.674 399.238l43.301-25v-20l-43.301 15z" fill="#944"/><path d="M338.673 369.238l-43.301-25 43.302-15 43.301 25z" fill="#e94"/><path d="M338.674 379.237l-43.301-25v-10l43.301 25z" fill="#4af"/><path d="M381.975 354.237l-43.301 15-43.301-25 43.301-15z" fill="#5cf"/><path d="M338.674 379.237l43.301-15v-10l-43.301 15z" fill="#57d"/><path d="M338.673 341.238l-12.99-7.5v-10l12.99 7.5z" fill="#1b7"/><path d="M338.673 331.238l12.99-4.5-12.99-7.5-12.99 4.5z" fill="#8d7"/><path d="M351.664 326.738v10l-12.99 4.5v-10z" fill="#286"/><path d="M325.682 351.738l-17.32-10 43.301-15 17.32 10z" fill="#e94"/><path d="M308.361 341.738v20l17.321 10v-20z" fill="#c63"/><path d="M325.682 351.738v10l43.301-15v-10z" fill="#944"/><path d="M368.983 358.738l-12.99-7.5v-10l12.99 7.5z" fill="#1b7"/><path d="M368.983 348.738l12.99-4.5-12.99-7.5-12.99 4.5z" fill="#8d7"/><path d="M381.974 344.238v10l-12.99 4.5v-10z" fill="#286"/><path d="M368.984 358.738v10l12.99-4.5v-10z" fill="#944"/></svg>