<svg xmlns="http://www.w3.org/2000/svg" viewBox="390.634 429.171 86.604 70.133"><path d="M390.635 464.304l.001 10 43.301 25v-20z" fill="#c63"/><path d="M433.937 499.304l43.301-25v-20l-43.301 25z" fill="#944"/><path d="M433.936 479.304l-43.301-15 43.301-25 43.301 15z" fill="#e94"/><path d="M433.936 489.304l-43.301-15v-10l43.301 15z" fill="#4af"/><path d="M477.237 454.304l-43.301 25-43.301-15 43.301-25z" fill="#5cf"/><path d="M433.936 489.304l43.301-25v-10l-43.301 25z" fill="#57d"/><path d="M433.936 451.171l-12.99-4.5v-10l12.99 4.5z" fill="#1b7"/><path d="M433.936 441.171l12.99-7.5-12.99-4.5-12.99 7.5z" fill="#8d7"/><path d="M446.927 433.671v10l-12.99 7.5v-10z" fill="#286"/><path d="M464.246 461.737l-12.99-4.5v-10l12.99 4.5z" fill="#1b7"/><path d="M464.246 451.737l12.99-7.5-12.99-4.5-12.99 7.5z" fill="#8d7"/><path d="M477.237 444.237v10l-12.99 7.5v-10z" fill="#286"/><path d="M446.926 461.737l17.32-10-43.301-15-17.32 10z" fill="#e94"/><path d="M403.624 446.737v10l43.301 15v-10z" fill="#c63"/><path d="M446.926 461.737v10l17.32-10v-10z" fill="#944"/><path d="M433.935 479.237l-12.99-4.5v-10l12.99 4.5z" fill="#1b7"/><path d="M433.935 469.237l12.99-7.5-12.99-4.5-12.99 7.5z" fill="#8d7"/><path d="M446.926 461.737v10l-12.99 7.5v-10z" fill="#286"/><path d="M433.936 479.237v10l43.301-25v-10z" fill="#944"/><path d="M420.945 474.737v10l12.99 4.5v-10z" fill="#c63"/><path d="M403.625 468.671l-12.99-4.5v-10l12.99 4.5z" fill="#1b7"/><path d="M403.625 458.671l12.99-7.5-12.99-4.5-12.99 7.5z" fill="#8d7"/><path d="M416.616 451.171v10l-12.99 7.5v-10z" fill="#286"/><path d="M390.635 464.171v10l12.99 4.5v-10z" fill="#c63"/></svg>