<svg xmlns="http://www.w3.org/2000/svg" viewBox="485.898 439.171 86.603 60.133"><path d="M485.898 474.304l43.301 25v-10z" fill="#4af"/><path d="M529.199 499.304l43.301-25v-10l-43.301 25z" fill="#57d"/><path d="M529.198 489.304l-43.301-15 43.301-25 43.301 15z" fill="#5cf"/><path d="M529.199 461.171l-12.99-4.5v-10l12.99 4.5z" fill="#1b7"/><path d="M529.199 451.171l12.99-7.5-12.99-4.5-12.99 7.5z" fill="#8d7"/><path d="M542.19 443.671v10l-12.99 7.5v-10z" fill="#286"/><path d="M559.509 471.737l-12.99-4.5v-10l12.99 4.5z" fill="#1b7"/><path d="M559.509 461.737l12.99-7.5-12.99-4.5-12.99 7.5z" fill="#8d7"/><path d="M572.5 454.237v10l-12.99 7.5v-10z" fill="#286"/><path d="M542.189 471.737l17.32-10-43.301-15-17.32 10z" fill="#e94"/><path d="M498.887 456.737v10l43.301 15v-10z" fill="#c63"/><path d="M542.189 471.737v10l17.32-10v-10z" fill="#944"/><path d="M529.198 489.237l-12.99-4.5v-10l12.99 4.5z" fill="#1b7"/><path d="M529.198 479.237l12.99-7.5-12.99-4.5-12.99 7.5z" fill="#8d7"/><path d="M542.189 471.737v10l-12.99 7.5v-10z" fill="#286"/><path d="M529.199 489.237v10l43.301-25v-10z" fill="#944"/><path d="M516.208 484.737v7l12.991 7.5v-10z" fill="#c63"/><path d="M498.888 478.671l-12.99-4.5v-10l12.99 4.5z" fill="#1b7"/><path d="M498.888 468.671l12.99-7.5-12.99-4.5-12.99 7.5z" fill="#8d7"/><path d="M511.879 461.171v10l-12.99 7.5v-10z" fill="#286"/><path d="M485.898 474.171l12.99 7.566.001-3.066z" fill="#c63"/></svg>