<svg xmlns="http://www.w3.org/2000/svg" viewBox="9.582 509.303 86.604 90.001"><path d="M9.583 554.304v20l43.301 25v-20z" fill="#c63"/><path d="M52.884 599.304l43.301-25v-30l-43.3 35z" fill="#944"/><path d="M52.883 579.304l-43.301-25 43.301-35 43.301 25z" fill="#e94"/><path d="M52.885 579.304l-43.301-25v10l43.301 25z" fill="#4af"/><path d="M96.186 544.304l-43.301 35-43.301-25 43.301-35z" fill="#5cf"/><path d="M52.885 589.304l43.301-35v-10l-43.301 35z" fill="#57d"/><path d="M22.573 561.737l-12.99-7.5v-10l12.99 7.5z" fill="#1b7"/><path d="M22.573 551.737l12.99-10.5-12.99-7.5-12.99 10.5z" fill="#8d7"/><path d="M35.564 541.237v10l-12.99 10.5v-10z" fill="#286"/><path d="M52.884 537.303l-12.99-7.5v-10l12.99 7.5z" fill="#1b7"/><path d="M52.884 527.303l12.99-10.5-12.99-7.5-12.99 10.5z" fill="#8d7"/><path d="M65.875 516.803v10l-12.99 10.5v-10z" fill="#286"/><path d="M39.894 561.803l-17.32-10 43.301-35 17.32 10z" fill="#e94"/><path d="M22.573 551.803v9.934l17.321 10v-9.934z" fill="#c63"/><path d="M39.894 561.803v10l43.301-35v-10z" fill="#944"/><path d="M83.195 554.803l-12.99-7.5v-10l12.99 7.5z" fill="#1b7"/><path d="M83.195 544.803l12.99-10.5-12.99-7.5-12.99 10.5z" fill="#8d7"/><path d="M96.186 534.303v10l-12.99 10.5v-10z" fill="#286"/><path d="M83.196 554.803v10l12.99-10.5v-10z" fill="#944"/><path d="M52.884 579.237l-12.99-7.5v-10l12.99 7.5z" fill="#1b7"/><path d="M52.884 569.237l12.99-10.5-12.99-7.5-12.99 10.5z" fill="#8d7"/><path d="M65.875 558.737v10l-12.99 10.5v-10z" fill="#286"/><path d="M52.885 579.237v10l12.99-10.5v-10z" fill="#944"/><path d="M9.583 554.237v9.934l43.301 25v-9.934z" fill="#c63"/></svg>