<svg xmlns="http://www.w3.org/2000/svg" viewBox="104.845 519.303 86.604 80.001"><path d="M104.846 564.304v10l43.301 25v-10z" fill="#c63"/><path d="M148.147 599.304l43.301-25v-20l-43.301 35z" fill="#944"/><path d="M148.146 589.304l-43.301-25 43.301-35 43.301 25z" fill="#e94"/><path d="M148.148 589.304l-43.301-25v10l43.301 25z" fill="#4af"/><path d="M191.449 554.304l-43.301 35-43.301-25 43.301-35z" fill="#5cf"/><path d="M148.148 599.304l43.301-35v-10l-43.301 35z" fill="#57d"/><path d="M117.836 571.737l-12.99-7.5v-10l12.99 7.5z" fill="#1b7"/><path d="M117.836 561.737l12.99-10.5-12.99-7.5-12.99 10.5z" fill="#8d7"/><path d="M130.827 551.237v10l-12.99 10.5v-10z" fill="#286"/><path d="M148.147 547.303l-12.99-7.5v-10l12.99 7.5z" fill="#1b7"/><path d="M148.147 537.303l12.99-10.5-12.99-7.5-12.99 10.5z" fill="#8d7"/><path d="M161.138 526.803v10l-12.99 10.5v-10z" fill="#286"/><path d="M135.157 571.803l-17.32-10 43.301-35 17.32 10z" fill="#e94"/><path d="M117.836 561.803v9.934l17.321 10v-9.934z" fill="#c63"/><path d="M135.157 571.803v10l43.301-35v-10z" fill="#944"/><path d="M178.458 564.803l-12.99-7.5v-10l12.99 7.5z" fill="#1b7"/><path d="M178.458 554.803l12.99-10.5-12.99-7.5-12.99 10.5z" fill="#8d7"/><path d="M191.449 544.303v10l-12.99 10.5v-10z" fill="#286"/><path d="M178.459 564.803v10l12.99-10.5v-10z" fill="#944"/><path d="M148.147 589.237l-12.99-7.5v-10l12.99 7.5z" fill="#1b7"/><path d="M148.147 579.237l12.99-10.5-12.99-7.5-12.99 10.5z" fill="#8d7"/><path d="M161.138 568.737v10l-12.99 10.5v-10z" fill="#286"/><path d="M148.148 589.237v10l12.99-10.5v-10z" fill="#944"/><path d="M104.846 564.237v9.934l43.301 25v-9.934z" fill="#c63"/></svg>