<svg xmlns="http://www.w3.org/2000/svg" viewBox="200.109 529.303 86.603 70.001"><path d="M286.712 574.304v-10l-43.301 35.001z" fill="#57d"/><path d="M243.41 599.304l-43.301-25 43.301-35 43.301 25z" fill="#5cf"/><path d="M213.099 581.737l-12.99-7.5v-10l12.99 7.5z" fill="#1b7"/><path d="M213.099 571.737l12.99-10.5-12.99-7.5-12.99 10.5z" fill="#8d7"/><path d="M226.09 561.237v10l-12.99 10.5v-10z" fill="#286"/><path d="M243.41 557.303l-12.99-7.5v-10l12.99 7.5z" fill="#1b7"/><path d="M243.41 547.303l12.99-10.5-12.99-7.5-12.99 10.5z" fill="#8d7"/><path d="M256.401 536.803v10l-12.99 10.5v-10z" fill="#286"/><path d="M230.42 581.803l-17.32-10 43.301-35 17.32 10z" fill="#e94"/><path d="M213.099 571.803v9.934l17.321 10v-9.934z" fill="#c63"/><path d="M230.42 581.803v10l43.301-35v-10z" fill="#944"/><path d="M273.721 574.803l-12.99-7.5v-10l12.99 7.5z" fill="#1b7"/><path d="M273.721 564.803l12.99-10.5-12.99-7.5-12.99 10.5z" fill="#8d7"/><path d="M286.712 554.303v10l-12.99 10.5v-10z" fill="#286"/><path d="M273.722 574.803v6.934l12.99-7.434v-10z" fill="#944"/><path d="M243.41 599.237l-12.99-7.5v-10l12.99 7.5z" fill="#1b7"/><path d="M243.41 589.237l12.99-10.5-12.99-7.5-12.99 10.5z" fill="#8d7"/><path d="M256.401 578.737v10l-12.99 10.5v-10z" fill="#286"/><path d="M243.411 599.237l12.99-7.5v-3z" fill="#944"/></svg>