<svg xmlns="http://www.w3.org/2000/svg" viewBox="390.634 529.171 86.604 70.133"><path d="M390.636 554.304v20l43.301 25v-20z" fill="#c63"/><path d="M433.937 599.304l43.301-25v-10l-43.3 15z" fill="#944"/><path d="M433.936 579.304l-43.301-25 43.302-15 43.301 25z" fill="#e94"/><path d="M433.936 589.304l-43.301-25v-10l43.301 25z" fill="#4af"/><path d="M477.237 564.304l-43.301 15-43.301-25 43.301-15z" fill="#5cf"/><path d="M433.936 589.304l43.301-15v-10l-43.301 15z" fill="#57d"/><path d="M433.935 551.171l-12.99-7.5v-10l12.99 7.5z" fill="#1b7"/><path d="M433.935 541.171l12.99-4.5-12.99-7.5-12.99 4.5z" fill="#8d7"/><path d="M446.926 536.671v10l-12.99 4.5v-10z" fill="#286"/><path d="M403.625 561.737l-12.99-7.5v-10l12.99 7.5z" fill="#1b7"/><path d="M403.625 551.737l12.99-4.5-12.99-7.5-12.99 4.5z" fill="#8d7"/><path d="M416.616 547.237v10l-12.99 4.5v-10z" fill="#286"/><path d="M420.945 561.737l-17.32-10 43.301-15 17.32 10z" fill="#e94"/><path d="M403.624 551.737v10l17.321 10v-10z" fill="#c63"/><path d="M420.945 561.737v10l43.301-15v-10z" fill="#944"/><path d="M433.935 579.237l-12.99-7.5v-10l12.99 7.5z" fill="#1b7"/><path d="M433.935 569.237l12.99-4.5-12.99-7.5-12.99 4.5z" fill="#8d7"/><path d="M446.926 564.737v10l-12.99 4.5v-10z" fill="#286"/><path d="M390.634 554.237v10l43.301 25v-10z" fill="#c63"/><path d="M433.936 579.237v10l12.99-4.5v-10z" fill="#944"/><path d="M464.246 568.671l-12.99-7.5v-10l12.99 7.5z" fill="#1b7"/><path d="M464.246 558.671l12.99-4.5-12.99-7.5-12.99 4.5z" fill="#8d7"/><path d="M477.237 554.171v10l-12.99 4.5v-10z" fill="#286"/><path d="M464.247 568.671v10l12.99-4.5v-10z" fill="#944"/></svg>