<svg xmlns="http://www.w3.org/2000/svg" viewBox="104.846 25.521 86.603 70"><path d="M148.148 95.521l-43.301-25v-10l43.301 25z" fill="#4af"/><path d="M191.449 60.521l-43.301 25-43.301-25 43.301-25z" fill="#5cf"/><path d="M148.148 95.521l43.301-25v-10l-43.301 25z" fill="#57d"/><path d="M148.148 50.521l-12.99-7.5v-10l12.99 7.5z" fill="#1b7"/><path d="M148.148 40.521l12.99-7.5-12.99-7.5-12.99 7.5z" fill="#8d7"/><path d="M161.139 33.021v10l-12.99 7.5v-10z" fill="#286"/><g transform="matrix(-1 0 0 1 -1765.7681 -3659.4791)"><path d="M-1900.926 3727.5l17.321-10-43.301-25-17.32 10z" fill="#e94"/><path d="M-1944.227 3702.5v10l43.301 25v-10z" fill="#944"/><path d="M-1900.926 3747.5l17.321-10v-20l-17.321 10z" fill="#c63"/></g><path d="M178.459 68.021l-12.99-7.5v-10l12.99 7.5z" fill="#1b7"/><path d="M178.459 58.021l12.99-7.5-12.99-7.5-12.99 7.5z" fill="#8d7"/><path d="M191.45 50.521v10l-12.99 7.5v-10z" fill="#286"/><path d="M191.449 60.521v10l-12.99 7.5v-10z" fill="#944"/></svg>