<svg xmlns="http://www.w3.org/2000/svg" viewBox="200.109 35.521 86.603 60"><path d="M286.712 70.52l-43.301 25-43.301-25 43.301-25z" fill="#5cf"/><path d="M243.411 60.521l-12.99-7.5v-10l12.99 7.5z" fill="#1b7"/><path d="M243.411 50.521l12.99-7.5-12.99-7.5-12.99 7.5z" fill="#8d7"/><path d="M256.402 43.021v10l-12.99 7.5v-10z" fill="#286"/><g transform="matrix(-1 0 0 1 -1670.5051 -3649.4791)"><path d="M-1900.926 3727.5l17.321-10-43.301-25-17.32 10z" fill="#e94"/><path d="M-1944.227 3702.5v10l43.301 25v-10z" fill="#944"/><path d="M-1900.926 3737.5l17.321-10v-10l-17.321 10z" fill="#c63"/></g><path d="M273.722 78.021l-12.99-7.5v-10l12.99 7.5z" fill="#1b7"/><path d="M273.722 68.021l12.99-7.5-12.99-7.5-12.99 7.5z" fill="#8d7"/><path d="M286.713 60.521v10l-12.99 7.5v-10z" fill="#286"/></svg>