<svg xmlns="http://www.w3.org/2000/svg" viewBox="295.372 23.021 86.603 72.5"><path d="M295.373 60.521v10l43.301 25v-10z" fill="#c63"/><path d="M338.674 95.521l43.301-25v-10l-43.301 25z" fill="#944"/><path d="M338.674 85.521l-43.301-25 43.301-25 43.301 25z" fill="#e94"/><path d="M338.674 85.521l-43.301-25v-10l43.301 25z" fill="#4af"/><path d="M381.975 50.521l-43.301 25-43.301-25 43.301-25z" fill="#5cf"/><path d="M338.674 85.521l43.301-25v-10l-43.301 25z" fill="#57d"/><path d="M308.362 58.021l-12.99-7.5v-10l12.99 7.5z" fill="#1b7"/><path d="M308.362 48.021l12.99-7.5-12.99-7.5-12.99 7.5z" fill="#8d7"/><path d="M321.353 40.521v10l-12.99 7.5v-10z" fill="#286"/><g transform="matrix(-1 0 0 1 -1575.2426 -3669.4791)"><path d="M-1900.926 3727.5l17.321-10-43.301-25-17.32 10z" fill="#e94"/><path d="M-1944.227 3702.5v10l43.301 25v-10z" fill="#944"/><path d="M-1900.926 3737.5l17.321-10v-10l-17.321 10z" fill="#c63"/></g><path d="M338.673 75.521l-12.99-7.5v-10l12.99 7.5z" fill="#1b7"/><path d="M338.673 65.521l12.99-7.5-12.99-7.5-12.99 7.5z" fill="#8d7"/><path d="M351.664 58.021v10l-12.99 7.5v-10z" fill="#286"/><path d="M295.372 50.521v10l43.301 25v-10z" fill="#c63"/><path d="M351.664 68.021v10l-12.99 7.5v-10z" fill="#944"/></svg>