<svg xmlns="http://www.w3.org/2000/svg" viewBox="390.635 33.021 86.603 62.5"><path d="M433.936 95.521l-43.301-25v-10l43.301 25z" fill="#4af"/><path d="M477.237 60.521l-43.301 25-43.301-25 43.301-25z" fill="#5cf"/><path d="M433.936 95.521l43.301-25v-10l-43.301 25z" fill="#57d"/><path d="M403.625 68.021l-12.99-7.5v-10l12.99 7.5z" fill="#1b7"/><path d="M403.625 58.021l12.99-7.5-12.99-7.5-12.99 7.5z" fill="#8d7"/><path d="M416.616 50.521v10l-12.99 7.5v-10z" fill="#286"/><g transform="matrix(-1 0 0 1 -1479.9796 -3659.4791)"><path d="M-1900.926 3727.5l17.321-10-43.301-25-17.32 10z" fill="#e94"/><path d="M-1944.227 3702.5v10l43.301 25v-10z" fill="#944"/><path d="M-1900.926 3737.5l17.321-10v-10l-17.321 10z" fill="#c63"/></g><path d="M433.936 85.521l-12.99-7.5v-10l12.99 7.5z" fill="#1b7"/><path d="M433.936 75.521l12.99-7.5-12.99-7.5-12.99 7.5z" fill="#8d7"/><path d="M446.927 68.021v10l-12.99 7.5v-10z" fill="#286"/><path d="M446.927 78.021v10l-12.99 7.5v-10z" fill="#944"/><path d="M390.635 60.521v10l43.301 25v-10z" fill="#c63"/></svg>