<svg xmlns="http://www.w3.org/2000/svg" viewBox="104.846 115.52 86.603 70"><path d="M148.148 185.521l-43.301-25v-10l43.301 25z" fill="#4af"/><path d="M191.449 150.521l-43.301 25-43.301-25 43.301-25z" fill="#5cf"/><path d="M148.148 185.521l43.301-25v-10l-43.301 25z" fill="#57d"/><path d="M148.147 140.52l-12.99-7.5v-10l12.99 7.5z" fill="#1b7"/><path d="M148.147 130.52l12.99-7.5-12.99-7.5-12.99 7.5z" fill="#8d7"/><path d="M161.138 123.02v10l-12.99 7.5v-10z" fill="#286"/><path d="M161.138 158.02l17.321-10-43.301-25-17.32 10z" fill="#e94"/><path d="M117.837 133.02v10l43.301 25v-10z" fill="#c63"/><path d="M161.138 178.02l17.321-10v-20l-17.321 10z" fill="#944"/><path d="M117.837 158.02l-12.99-7.5v-10l12.99 7.5z" fill="#1b7"/><path d="M117.837 148.02l12.99-7.5-12.99-7.5-12.99 7.5z" fill="#8d7"/><path d="M130.828 140.52v10l-12.99 7.5v-10z" fill="#286"/><path d="M104.847 150.52v10l12.99 7.5v-10z" fill="#c63"/></svg>