<svg xmlns="http://www.w3.org/2000/svg" viewBox="200.109 125.521 86.603 60"><path d="M286.711 160.521l-43.301 25-43.301-25 43.301-25z" fill="#5cf"/><path d="M243.41 150.521l-12.99-7.5v-10l12.99 7.5z" fill="#1b7"/><path d="M243.41 140.521l12.99-7.5-12.99-7.5-12.99 7.5z" fill="#8d7"/><path d="M256.401 133.021v10l-12.99 7.5v-10z" fill="#286"/><path d="M256.401 168.021l17.321-10-43.301-25-17.32 10z" fill="#e94"/><path d="M213.1 143.021v10l43.301 25v-10z" fill="#c63"/><path d="M256.401 178.021l17.321-10v-10l-17.321 10z" fill="#944"/><path d="M213.1 168.021l-12.99-7.5v-10l12.99 7.5z" fill="#1b7"/><path d="M213.1 158.021l12.99-7.5-12.99-7.5-12.99 7.5z" fill="#8d7"/><path d="M226.091 150.521v10l-12.99 7.5v-10z" fill="#286"/></svg>