<svg xmlns="http://www.w3.org/2000/svg" viewBox="295.372 113.02 86.603 72.5"><path d="M295.372 150.521v10l43.301 25v-10z" fill="#c63"/><path d="M338.673 185.521l43.301-25v-10l-43.301 25z" fill="#944"/><path d="M338.673 175.521l-43.301-25 43.301-25 43.301 25z" fill="#e94"/><path d="M338.673 175.521l-43.301-25v-10l43.301 25z" fill="#4af"/><path d="M381.974 140.521l-43.301 25-43.301-25 43.301-25z" fill="#5cf"/><path d="M338.673 175.521l43.301-25v-10l-43.301 25z" fill="#57d"/><path d="M368.984 148.021l-12.99-7.5v-10l12.99 7.5z" fill="#1b7"/><path d="M368.984 138.021l12.99-7.5-12.99-7.5-12.99 7.5z" fill="#8d7"/><path d="M381.975 130.521v10l-12.99 7.5v-10z" fill="#286"/><path d="M351.664 148.021l17.321-10-43.301-25-17.32 10z" fill="#e94"/><path d="M308.363 123.021v10l43.301 25v-10z" fill="#c63"/><path d="M351.664 158.021l17.321-10v-10l-17.321 10z" fill="#944"/><path d="M338.673 165.521l-12.99-7.5v-10l12.99 7.5z" fill="#1b7"/><path d="M338.673 155.521l12.99-7.5-12.99-7.5-12.99 7.5z" fill="#8d7"/><path d="M351.664 148.021v10l-12.99 7.5v-10z" fill="#286"/><path d="M338.674 175.521l43.301-25v-10l-43.301 25z" fill="#944"/><path d="M325.684 158.021v10l12.99 7.5v-10z" fill="#c63"/></svg>