<svg xmlns="http://www.w3.org/2000/svg" viewBox="9.583 195.521 86.604 80"><path d="M9.584 220.521v30l43.301 25v-30z" fill="#c63"/><path d="M52.885 275.521l43.301-25v-20l-43.301 25z" fill="#944"/><path d="M96.186 230.521l-30.311 17.5-43.301-25 30.311-17.5z" fill="#5cf"/><path d="M65.875 258.021l17.32-10v-10l-17.32 10z" fill="#57d"/><path d="M22.574 238.021l-12.99-7.5v-10l12.99 7.5z" fill="#1b7"/><path d="M22.574 228.021l12.99-7.5-12.99-7.5-12.99 7.5z" fill="#8d7"/><path d="M35.565 220.521v10l-12.99 7.5v-10z" fill="#286"/><path d="M52.885 220.521l-12.99-7.5v-10l12.99 7.5z" fill="#1b7"/><path d="M52.885 210.521l12.99-7.5-12.99-7.5-12.99 7.5z" fill="#8d7"/><path d="M65.876 203.021v10l-12.99 7.5v-10z" fill="#286"/><g transform="matrix(-1 0 0 1 -1861.0311 -3489.4791)"><path d="M-1900.926 3727.5l17.321-10-43.301-25-17.32 10z" fill="#e94"/><path d="M-1944.227 3702.5v10l43.301 25v-10z" fill="#944"/><path d="M-1900.926 3737.5l17.321-10v-10l-17.321 10z" fill="#c63"/></g><path d="M83.196 238.021l-12.99-7.5v-10l12.99 7.5z" fill="#1b7"/><path d="M83.196 228.021l12.99-7.5-12.99-7.5-12.99 7.5z" fill="#8d7"/><path d="M96.187 220.521v10l-12.99 7.5v-10z" fill="#286"/><path d="M52.885 255.521l-12.99-7.5v-10l12.99 7.5z" fill="#1b7"/><path d="M52.885 245.521l12.99-7.5-12.99-7.5-12.99 7.5z" fill="#8d7"/><path d="M65.876 238.021v10l-12.99 7.5v-10z" fill="#286"/></svg>