<svg xmlns="http://www.w3.org/2000/svg" viewBox="104.846 205.521 86.603 70"><path d="M148.148 275.521l-43.301-25v-10l43.301 25z" fill="#4af"/><path d="M191.449 240.521l-43.301 25-43.301-25 43.301-25z" fill="#5cf"/><path d="M148.148 275.521l43.301-25v-10l-43.301 25z" fill="#57d"/><path d="M117.837 248.021l-12.99-7.5v-10l12.99 7.5z" fill="#1b7"/><path d="M117.837 238.021l12.99-7.5-12.99-7.5-12.99 7.5z" fill="#8d7"/><path d="M130.828 230.521v10l-12.99 7.5v-10z" fill="#286"/><path d="M148.148 230.521l-12.99-7.5v-10l12.99 7.5z" fill="#1b7"/><path d="M148.148 220.521l12.99-7.5-12.99-7.5-12.99 7.5z" fill="#8d7"/><path d="M161.139 213.021v10l-12.99 7.5v-10z" fill="#286"/><g transform="matrix(-1 0 0 1 -1765.7681 -3479.4791)"><path d="M-1900.926 3727.5l17.321-10-43.301-25-17.32 10z" fill="#e94"/><path d="M-1944.227 3702.5v10l43.301 25v-10z" fill="#944"/><path d="M-1900.926 3737.5l17.321-10v-10l-17.321 10z" fill="#c63"/></g><path d="M178.459 248.021l-12.99-7.5v-10l12.99 7.5z" fill="#1b7"/><path d="M178.459 238.021l12.99-7.5-12.99-7.5-12.99 7.5z" fill="#8d7"/><path d="M191.45 230.521v10l-12.99 7.5v-10z" fill="#286"/><path d="M191.449 240.521v10l-12.99 7.5v-10z" fill="#944"/><path d="M148.148 265.521l-12.99-7.5v-10l12.99 7.5z" fill="#1b7"/><path d="M148.148 255.521l12.99-7.5-12.99-7.5-12.99 7.5z" fill="#8d7"/><path d="M161.139 248.021v10l-12.99 7.5v-10z" fill="#286"/><path d="M104.847 240.522v10l43.301 25v-10z" fill="#c63"/><path d="M161.139 258.021v10l-12.99 7.5v-10z" fill="#944"/></svg>