<svg xmlns="http://www.w3.org/2000/svg" viewBox="295.372 195.521 86.603 80"><path d="M295.372 230.521v20l43.301 25v-20z" fill="#c63"/><path d="M338.673 275.521l43.301-25v-30l-43.301 25z" fill="#944"/><path d="M325.683 258.02l-17.321-10v-10l17.321 10z" fill="#4af"/><path d="M381.974 230.52l-43.301 25-43.301-25 43.301-25z" fill="#5cf"/><path d="M368.984 238.021l-12.99-7.5v-10l12.99 7.5z" fill="#1b7"/><path d="M368.984 228.021l12.99-7.5-12.99-7.5-12.99 7.5z" fill="#8d7"/><path d="M381.975 220.521v10l-12.99 7.5v-10z" fill="#286"/><path d="M338.673 220.521l-12.99-7.5v-10l12.99 7.5z" fill="#1b7"/><path d="M338.673 210.521l12.99-7.5-12.99-7.5-12.99 7.5z" fill="#8d7"/><path d="M351.664 203.021v10l-12.99 7.5v-10z" fill="#286"/><path d="M351.663 238.021l17.321-10-43.301-25-17.32 10z" fill="#e94"/><path d="M308.362 213.021v10l43.301 25v-10z" fill="#c63"/><path d="M351.663 248.021l17.321-10v-10l-17.321 10z" fill="#944"/><path d="M308.362 238.021l-12.99-7.5v-10l12.99 7.5z" fill="#1b7"/><path d="M308.362 228.021l12.99-7.5-12.99-7.5-12.99 7.5z" fill="#8d7"/><path d="M321.353 220.521v10l-12.99 7.5v-10z" fill="#286"/><path d="M338.673 255.521l-12.99-7.5v-10l12.99 7.5z" fill="#1b7"/><path d="M338.673 245.521l12.99-7.5-12.99-7.5-12.99 7.5z" fill="#8d7"/><path d="M351.664 238.021v10l-12.99 7.5v-10z" fill="#286"/></svg>