<svg xmlns="http://www.w3.org/2000/svg" viewBox="390.634 205.521 86.603 70"><path d="M433.936 275.521l-43.301-25v-10l43.301 25z" fill="#4af"/><path d="M477.237 240.521l-43.301 25-43.301-25 43.301-25z" fill="#5cf"/><path d="M433.936 275.521l43.301-25v-10l-43.301 25z" fill="#57d"/><path d="M464.246 248.021l-12.99-7.5v-10l12.99 7.5z" fill="#1b7"/><path d="M464.246 238.021l12.99-7.5-12.99-7.5-12.99 7.5z" fill="#8d7"/><path d="M477.237 230.521v10l-12.99 7.5v-10z" fill="#286"/><path d="M433.935 230.521l-12.99-7.5v-10l12.99 7.5z" fill="#1b7"/><path d="M433.935 220.521l12.99-7.5-12.99-7.5-12.99 7.5z" fill="#8d7"/><path d="M446.926 213.021v10l-12.99 7.5v-10z" fill="#286"/><path d="M446.926 248.021l17.321-10-43.301-25-17.32 10z" fill="#e94"/><path d="M403.625 223.021v10l43.301 25v-10z" fill="#c63"/><path d="M446.859 265.438l17.321-10 .067-17.417-17.321 10z" fill="#944"/><path d="M403.625 248.021l-12.99-7.5v-10l12.99 7.5z" fill="#1b7"/><path d="M403.625 238.021l12.99-7.5-12.99-7.5-12.99 7.5z" fill="#8d7"/><path d="M416.616 230.521v10l-12.99 7.5v-10z" fill="#286"/><path d="M390.635 240.521v10l12.99 7.5v-10z" fill="#c63"/><path d="M433.935 265.521l-12.99-7.5v-10l12.99 7.5z" fill="#1b7"/><path d="M433.935 255.521l12.99-7.5-12.99-7.5-12.99 7.5z" fill="#8d7"/><path d="M446.926 248.021v10l-12.99 7.5v-10z" fill="#286"/><path d="M433.936 275.521l43.301-25v-10l-43.301 25z" fill="#944"/><path d="M420.946 258.021v10l12.99 7.5v-10z" fill="#c63"/></svg>