<svg xmlns="http://www.w3.org/2000/svg" viewBox="305.942 518.021 86.603 90"><path d="M349.244 568.021l-43.301-25 43.301-25 43.301 25z" fill="#e94"/><path d="M305.942 543.021v40l43.301 25v-40z" fill="#c63"/><path d="M349.243 608.021l43.301-25v-40l-43.301 25z" fill="#944"/><path d="M349.244 578.021l43.301-25v-10l-43.301 25z" fill="#286"/><path d="M349.244 568.021l-12.99-7.5 30.311-17.5-30.311-17.5 12.99-7.5 43.301 25z" fill="#8d7"/><path d="M349.244 578.021l-12.99-7.5v-10l12.99 7.5zm-30.311-17.5l-12.99-7.5v-10l12.99 7.5z" fill="#1b7"/><path d="M318.933 550.521l12.99-7.5-12.99-7.5-12.99 7.5z" fill="#8d7"/></svg>