<svg xmlns="http://www.w3.org/2000/svg" viewBox="496.468 518.021 86.603 90"><path d="M539.769 568.021l-43.301-25 43.301-25 43.301 25z" fill="#e94"/><path d="M583.07 543.021v40l-43.301 25v-40z" fill="#944"/><path d="M539.769 608.021l-43.301-25v-40l43.301 25z" fill="#c63"/><path d="M539.768 578.021l-12.99-7.5v-10l12.99 7.5z" fill="#1b7"/><path d="M539.768 568.021l12.99-7.5-12.99-7.5-12.99 7.5z" fill="#8d7"/><path d="M552.759 560.521v10l-12.99 7.5v-10z" fill="#286"/><path d="M570.079 550.521l12.99-7.5-12.99-7.5-12.99 7.5z" fill="#8d7"/><path d="M583.07 543.021v10l-12.99 7.5v-10z" fill="#286"/><path d="M509.458 560.521l-12.99-7.5v-10l12.99 7.5z" fill="#1b7"/><path d="M509.458 550.521l43.301-25-12.99-7.5-43.301 25z" fill="#8d7"/></svg>