<svg xmlns="http://www.w3.org/2000/svg" viewBox="686.993 518.021 86.603 90"><path d="M730.295 568.021l-43.301-25 43.301-25 43.301 25z" fill="#e94"/><path d="M686.993 553.021v30l43.301 25v-30z" fill="#c63"/><path d="M730.295 608.021l43.301-25v-40l-43.301 25z" fill="#944"/><path d="M730.294 578.021l12.99-7.5v-10l-12.99 7.5z" fill="#286"/><path d="M730.294 568.021l-43.301-25 12.99-7.5 43.301 25z" fill="#8d7"/><path d="M686.993 543.021v10l43.301 25v-10z" fill="#1b7"/><path d="M730.294 533.021l12.99-7.5-12.99-7.5-12.99 7.5zm30.311 17.5l12.99-7.5-12.99-7.5-12.99 7.5z" fill="#8d7"/><path d="M773.596 543.021v10l-12.99 7.5v-10z" fill="#286"/></svg>