<svg xmlns="http://www.w3.org/2000/svg" viewBox="115.417 15.104 86.603 90"><path d="M115.417 50.104v30l43.301 25v-30z" fill="#c63"/><path d="M158.718 105.104l43.301-25v-30l-43.301 25z" fill="#944"/><path d="M128.407 42.604l43.301 25 17.32-10-43.301-25z" fill="#5cf"/><path d="M171.709 77.604l17.321-10v-10l-17.321 10z" fill="#57d"/><path d="M189.029 57.604l12.99-7.5v-10l-12.99 7.5z" fill="#286"/><path d="M189.029 47.604l-43.301-25 12.99-7.5 43.301 25z" fill="#8d7"/><path d="M145.728 22.604v10l43.301 25v-10z" fill="#1b7"/><path d="M158.718 75.104l12.99-7.5v-10l-12.99 7.5z" fill="#286"/><path d="M158.718 65.104l-43.301-25 12.99-7.5 43.301 25z" fill="#8d7"/><path d="M115.417 40.104v10l43.301 25v-10z" fill="#1b7"/></svg>