<svg xmlns="http://www.w3.org/2000/svg" viewBox="115.417 122.604 86.603 82.5"><path d="M115.417 150.104v30l43.301 25v-30z" fill="#c63"/><path d="M158.718 205.104l43.301-25v-30l-43.301 25z" fill="#944"/><path d="M115.417 150.104l43.301 25 43.301-25-43.301-25z" fill="#5cf"/><path d="M115.417 150.104v10l43.301 25v-10z" fill="#4af"/><path d="M158.718 185.104l12.99-7.5v-10l-12.99 7.5zm30.311-17.5l12.99-7.5v-10l-12.99 7.5z" fill="#57d"/><path d="M171.708 167.604l17.321-10v-10l-17.321 10z" fill="#286"/><path d="M171.708 157.604l-43.301-25 17.321-10 43.301 25z" fill="#8d7"/><path d="M128.407 132.604v10l43.301 25v-10z" fill="#1b7"/></svg>