<svg xmlns="http://www.w3.org/2000/svg" viewBox="210.68 122.604 86.603 82.5"><path d="M297.282 150.104v30l-43.301 25v-30z" fill="#944"/><path d="M253.981 205.104l-43.301-25v-30l43.301 25z" fill="#c63"/><path d="M210.68 150.104l43.301 25 43.301-25-43.301-25z" fill="#5cf"/><path d="M210.68 150.104v10l12.99 7.5v-10zm43.301 35l-12.99-7.5v-10l12.99 7.5z" fill="#4af"/><path d="M253.981 185.104l43.301-25v-10l-43.301 25z" fill="#57d"/><path d="M240.99 167.604l-17.32-10v-10l17.32 10z" fill="#1b7"/><path d="M240.99 157.604l43.301-25-17.32-10-43.301 25z" fill="#8d7"/><path d="M284.292 132.604v10l-43.301 25v-10z" fill="#286"/></svg>