<svg xmlns="http://www.w3.org/2000/svg" viewBox="401.205 215.104 86.603 90"><path d="M401.205 250.104v30l43.301 25v-30z" fill="#c63"/><path d="M444.506 305.104l43.301-25v-30l-43.301 25z" fill="#944"/><path d="M401.205 250.104l43.301 25 30.311-17.5-43.301-25z" fill="#5cf"/><path d="M414.195 257.604v10l17.321 10v-10z" fill="#4af"/><path d="M444.506 275.104l43.301-25v-10l-43.301 25z" fill="#286"/><path d="M444.506 230.104v10l17.321 10v-10zm0 45l-12.99-7.5v-10l12.99 7.5z" fill="#1b7"/><path d="M444.506 265.104l-12.99-7.5 30.311-17.5-17.321-10-30.311 17.5-12.99-7.5 43.301-25 43.301 25z" fill="#8d7"/><path d="M414.195 257.604l-12.99-7.5v-10l12.99 7.5z" fill="#1b7"/><path d="M444.506 230.104v10l-30.311 17.5v-10z" fill="#286"/></svg>