<svg xmlns="http://www.w3.org/2000/svg" viewBox="496.468 215.104 86.603 90"><path d="M583.07 250.104v30l-43.301 25v-30z" fill="#944"/><path d="M539.769 305.104l-43.301-25v-30l43.301 25z" fill="#c63"/><path d="M509.458 257.604l30.311 17.5 43.301-25-30.311-17.5z" fill="#5cf"/><path d="M552.759 277.604l17.321-10v-10l-17.321 10z" fill="#57d"/><path d="M552.759 257.604v10l-12.99 7.5v-10zm-12.99-27.5v10l-17.321 10v-10z" fill="#286"/><path d="M539.769 275.104l-43.301-25v-10l43.301 25zm30.311-17.5l-30.311-17.5v-10l30.311 17.5z" fill="#1b7"/><path d="M583.071 240.104v10l-12.99 7.5v-10z" fill="#286"/><path d="M539.769 265.104l12.99-7.5-30.311-17.5 17.321-10 30.311 17.5 12.99-7.5-43.301-25-43.301 25z" fill="#8d7"/></svg>