<svg xmlns="http://www.w3.org/2000/svg" viewBox="401.205 325.104 86.603 80"><path d="M487.808 350.104v30l-43.301 25v-30z" fill="#944"/><path d="M444.507 405.104l-43.301-25v-30l43.301 25z" fill="#c63"/><path d="M401.205 350.104l43.301 25 43.301-25-43.301-25z" fill="#5cf"/><path d="M401.205 350.104v10l12.99 7.5v-10zm43.301 35l-12.99-7.5v-10l12.99 7.5z" fill="#4af"/><path d="M444.506 385.104l43.301-25v-10l-43.301 25z" fill="#57d"/><path d="M431.516 367.604l-17.32-10v-10l17.32 10z" fill="#1b7"/><path d="M431.516 357.604l30.311-17.5-17.32-10-30.311 17.5z" fill="#8d7"/><path d="M461.827 340.104v10l-30.311 17.5v-10z" fill="#286"/></svg>