<svg xmlns="http://www.w3.org/2000/svg" viewBox="210.68 415.104 86.603 90"><path d="M297.282 450.104v30l-43.301 25v-30z" fill="#944"/><path d="M253.981 505.104l-43.301-25v-30l43.301 25z" fill="#c63"/><path d="M284.292 442.604l-43.301 25-30.311-17.5 43.301-25z" fill="#5cf"/><path d="M253.98 440.104l-12.99-7.5v-10l12.99 7.5z" fill="#1b7"/><path d="M253.98 430.104l12.99-7.5-12.99-7.5-12.99 7.5z" fill="#8d7"/><path d="M266.971 422.604v10l-12.99 7.5v-10z" fill="#286"/><path d="M253.98 475.104l-43.301-25v-10l43.301 25z" fill="#1b7"/><path d="M253.98 465.104l43.301-25-12.99-7.5-30.311 17.5-30.311-17.5-12.99 7.5z" fill="#8d7"/><path d="M297.282 440.104v10l-43.301 25v-10z" fill="#286"/></svg>