<svg xmlns="http://www.w3.org/2000/svg" viewBox="401.205 415.104 86.603 90"><path d="M401.205 450.104v30l43.301 25v-30z" fill="#c63"/><path d="M444.506 505.104l43.301-25v-30l-43.301 25z" fill="#944"/><path d="M401.205 450.104l43.301 25 30.311-17.5-43.301-25z" fill="#5cf"/><path d="M414.195 457.604v10l17.321 10v-10z" fill="#4af"/><path d="M457.497 477.604l17.321-10v-10l-17.321 10z" fill="#57d"/><path d="M474.817 457.604l12.99-7.5v-10l-12.99 7.5z" fill="#286"/><path d="M474.817 447.604l-43.301-25 12.99-7.5 43.301 25z" fill="#8d7"/><path d="M431.516 422.604v10l43.301 25v-10zm12.99 52.5l-12.99-7.5v-10l12.99 7.5z" fill="#1b7"/><path d="M444.506 465.104l12.99-7.5-12.99-7.5-12.99 7.5z" fill="#8d7"/><path d="M457.497 457.604v10l-12.99 7.5v-10z" fill="#286"/><path d="M414.195 457.604l-12.99-7.5v-10l12.99 7.5z" fill="#1b7"/><path d="M414.195 447.604l12.99-7.5-12.99-7.5-12.99 7.5z" fill="#8d7"/><path d="M427.186 440.104v10l-12.99 7.5v-10z" fill="#286"/></svg>