<svg xmlns="http://www.w3.org/2000/svg" viewBox="591.731 415.104 86.603 90"><path d="M678.333 450.104v30l-43.301 25v-30z" fill="#944"/><path d="M635.032 505.104l-43.301-25v-30l43.301 25z" fill="#c63"/><path d="M622.041 477.604l-17.321-10v-10l17.321 10z" fill="#4af"/><path d="M665.343 442.604l-43.301 25-30.311-17.5 43.301-25z" fill="#5cf"/><path d="M635.031 440.104l-12.99-7.5v-10l12.99 7.5z" fill="#1b7"/><path d="M635.031 430.104l12.99-7.5-12.99-7.5-12.99 7.5z" fill="#8d7"/><path d="M648.022 422.604v10l-12.99 7.5v-10z" fill="#286"/><path d="M635.031 475.104l-12.99-7.5v-10l12.99 7.5z" fill="#1b7"/><path d="M635.031 465.104l43.301-25-12.99-7.5-43.301 25z" fill="#8d7"/><path d="M678.333 440.104v10l-43.301 25v-10z" fill="#286"/><path d="M604.721 457.604l-12.99-7.5v-10l12.99 7.5z" fill="#1b7"/><path d="M604.721 447.604l12.99-7.5-12.99-7.5-12.99 7.5z" fill="#8d7"/><path d="M617.712 440.104v10l-12.99 7.5v-10z" fill="#286"/></svg>