<svg xmlns="http://www.w3.org/2000/svg" viewBox="305.942 522.604 86.603 82.5"><path d="M305.942 550.104v30l43.301 25v-30z" fill="#c63"/><path d="M349.243 605.104l43.301-25v-30l-43.301 25z" fill="#944"/><path d="M305.942 550.104l43.301 25 43.301-25-43.301-25z" fill="#5cf"/><path d="M336.253 567.604v10l12.99 7.5v-10z" fill="#4af"/><path d="M349.243 585.104l43.301-25v-10l-43.301 25z" fill="#57d"/><path d="M305.942 550.104v10l12.99 7.5v-10z" fill="#4af"/><path d="M318.933 532.604v10l12.99 7.5v-10z" fill="#1b7"/><path d="M336.253 567.604l30.311-17.5v-10l-30.311 17.5z" fill="#286"/><path d="M336.253 557.604l-17.321-10 12.99-7.5-12.99-7.5 17.32-10 30.311 17.5z" fill="#8d7"/><path d="M318.933 547.604v10l17.321 10v-10z" fill="#1b7"/></svg>