<svg xmlns="http://www.w3.org/2000/svg" viewBox="401.205 522.604 86.603 82.5"><path d="M401.205 550.104v30l43.301 25v-30z" fill="#c63"/><path d="M444.506 605.104l43.301-25v-30l-43.301 25z" fill="#944"/><path d="M401.205 550.104l43.301 25 43.301-25-43.301-25z" fill="#5cf"/><path d="M431.516 567.604v10l12.99 7.5v-10zm-30.311-17.5v10l12.99 7.5v-10z" fill="#4af"/><path d="M457.496 567.604v10l-12.99 7.5v-10zm30.311-17.5v10l-12.99 7.5v-10z" fill="#57d"/><path d="M414.196 532.604v10l12.99 7.5v-10z" fill="#1b7"/><path d="M457.497 567.604l17.321-10v-10l-17.321 10z" fill="#286"/><path d="M457.497 557.604l-12.99-7.5-12.99 7.5-17.321-10 12.99-7.5-12.99-7.5 17.321-10 43.301 25z" fill="#8d7"/><path d="M444.507 550.104v10l12.99 7.5v-10z" fill="#1b7"/><path d="M431.516 567.604l12.99-7.5v-10l-12.99 7.5z" fill="#286"/><path d="M414.196 547.604v10l17.321 10v-10z" fill="#1b7"/></svg>