<svg xmlns="http://www.w3.org/2000/svg" viewBox="496.468 522.604 86.603 82.5"><path d="M496.468 550.104v30l43.301 25v-30z" fill="#c63"/><path d="M539.769 605.104l43.301-25v-30l-43.301 25z" fill="#944"/><path d="M496.468 550.104l43.301 25 43.301-25-43.301-25z" fill="#5cf"/><path d="M496.468 550.104v10l12.99 7.5v-10zm30.31 17.5v10l12.99 7.5v-10z" fill="#4af"/><path d="M552.759 567.604v10l-12.99 7.5v-10zm30.311-17.5v10l-12.99 7.5v-10z" fill="#57d"/><path d="M526.779 567.604l-17.32-10v-10l17.32 10z" fill="#1b7"/><path d="M539.77 550.104v10l-12.99 7.5v-10zm30.31-17.5v10l-12.99 7.5v-10zm0 15v10l-17.321 10v-10z" fill="#286"/><path d="M552.76 567.604l-12.99-7.5v-10l12.99 7.5z" fill="#1b7"/><path d="M526.779 557.604l12.99-7.5 12.99 7.5 17.321-10-12.99-7.5 12.991-7.5-17.32-10-43.301 25z" fill="#8d7"/></svg>