<svg xmlns="http://www.w3.org/2000/svg" viewBox="686.993 522.604 86.603 82.5"><path d="M686.994 550.104v30l43.301 25v-30z" fill="#c63"/><path d="M730.295 605.104l43.301-25v-30l-43.301 25z" fill="#944"/><path d="M686.993 550.104l43.301 25 43.301-25-43.301-25z" fill="#5cf"/><path d="M686.993 550.104v10l43.301 25v-10z" fill="#4af"/><path d="M743.285 567.604v10l-12.99 7.5v-10zm30.311-17.5v10l-12.99 7.5v-10z" fill="#57d"/><path d="M747.615 550.104l12.99-7.5v-10l-12.99 7.5zm-4.33 17.5l17.321-10v-10l-17.321 10z" fill="#286"/><path d="M743.285 557.604l-43.301-25 17.321-10 12.99 7.5 12.99-7.5 17.321 10-12.99 7.5 12.99 7.5z" fill="#8d7"/><path d="M699.984 532.604v10l43.301 25v-10z" fill="#1b7"/></svg>