<svg xmlns="http://www.w3.org/2000/svg" viewBox="115.417 615.104 86.603 90"><path d="M202.019 650.104v30l-43.301 25v-30z" fill="#944"/><path d="M158.718 705.104l-43.301-25v-30l43.301 25z" fill="#c63"/><path d="M115.417 650.104l43.301 25 43.301-25-43.301-25z" fill="#5cf"/><path d="M115.417 650.104v10l12.99 7.5v-10z" fill="#4af"/><path d="M171.709 677.604l30.311-17.5v-10l-30.311 17.5z" fill="#57d"/><path d="M158.718 675.104l-30.311-17.5v-10l30.311 17.5z" fill="#1b7"/><path d="M189.029 632.604v10l-30.311 17.5v-10zm-17.321 25v10l-12.99 7.5v-10z" fill="#286"/><path d="M158.718 640.104l-12.99-7.5v-10l12.99 7.5z" fill="#1b7"/><path d="M158.718 665.104l12.99-7.5-12.99-7.5 30.311-17.5-30.311-17.5-12.99 7.5 12.99 7.5-30.311 17.5z" fill="#8d7"/></svg>