<svg xmlns="http://www.w3.org/2000/svg" viewBox="210.68 622.604 86.603 82.5"><path d="M210.68 650.104v30l43.301 25v-30z" fill="#c63"/><path d="M253.981 705.104l43.301-25v-30l-43.301 25z" fill="#944"/><path d="M210.68 650.104l43.301 25 43.301-25-43.301-25z" fill="#5cf"/><path d="M240.991 667.604v10l12.99 7.5v-10z" fill="#4af"/><path d="M253.981 685.104l30.311-17.5v-10l-30.311 17.5z" fill="#57d"/><path d="M284.291 657.604l12.99-7.5v-10l-12.99 7.5z" fill="#286"/><path d="M240.99 657.604l30.311-17.5 12.99 7.5 12.99-7.5-30.311-17.5-30.311 17.5-12.99-7.5-12.99 7.5z" fill="#8d7"/><path d="M271.301 640.104v10l12.99 7.5v-10z" fill="#1b7"/><path d="M240.99 667.604l30.311-17.5v-10l-30.311 17.5z" fill="#286"/><path d="M210.679 640.104v10l30.311 17.5v-10z" fill="#1b7"/></svg>