<svg xmlns="http://www.w3.org/2000/svg" viewBox="686.993 622.604 86.603 82.5"><path d="M686.993 650.104v30l43.301 25v-30z" fill="#c63"/><path d="M730.295 705.104l43.301-25v-30l-43.301 25z" fill="#944"/><path d="M699.984 642.604l43.301 25 30.311-17.5-43.301-25z" fill="#5cf"/><path d="M743.286 677.604l30.311-17.5v-10l-30.311 17.5z" fill="#57d"/><path d="M730.294 660.104l30.311-17.5v-10l-30.311 17.5zm0 15l12.99-7.5v-10l-12.99 7.5z" fill="#286"/><path d="M730.294 665.104l-43.301-25 12.99-7.5 12.99 7.5 30.311-17.5 17.321 10-30.311 17.5 12.99 7.5z" fill="#8d7"/><path d="M686.993 640.104v10l43.301 25v-10z" fill="#1b7"/></svg>