<svg xmlns="http://www.w3.org/2000/svg" viewBox="20.154 715.104 86.603 90"><path d="M20.154 750.104v30l43.301 25v-30z" fill="#c63"/><path d="M63.455 805.104l43.301-25v-30l-43.301 25z" fill="#944"/><path d="M20.154 750.104l43.301 25 43.301-25-43.301-25z" fill="#5cf"/><path d="M33.144 757.604v10l-12.99-7.5v-10z" fill="#4af"/><path d="M76.446 777.604l30.311-17.5v-10l-30.311 17.5z" fill="#57d"/><path d="M50.465 722.604v10l30.311 17.5v-10z" fill="#1b7"/><path d="M93.766 732.604v10l-12.99 7.5v-10z" fill="#286"/><path d="M50.465 722.604l12.99-7.5 30.311 17.5-12.99 7.5z" fill="#8d7"/><path d="M33.144 747.604v10l30.311 17.5v-10z" fill="#1b7"/><path d="M76.445 757.604v10l-12.99 7.5v-10z" fill="#286"/><path d="M33.144 747.604l12.99-7.5 30.311 17.5-12.99 7.5z" fill="#8d7"/></svg>