<svg xmlns="http://www.w3.org/2000/svg" viewBox="210.68 715.104 86.603 90"><path d="M210.68 750.104v30l43.301 25v-30z" fill="#c63"/><path d="M253.981 805.104l43.301-25v-30l-43.301 25z" fill="#944"/><path d="M210.68 750.104l43.301 25 43.301-25-43.301-25z" fill="#5cf"/><path d="M240.991 767.604v10l-30.311-17.5v-10z" fill="#4af"/><path d="M284.292 767.604l12.99-7.5v-10l-12.99 7.5z" fill="#57d"/><path d="M240.991 757.604v10l12.99 7.5v-10z" fill="#1b7"/><path d="M284.292 747.604v10l-30.311 17.5v-10z" fill="#286"/><path d="M284.292 747.604l-12.99-7.5-30.311 17.5 12.99 7.5z" fill="#8d7"/><path d="M223.67 732.604v10l12.99 7.5v-10z" fill="#1b7"/><path d="M266.971 722.604v10l-30.311 17.5v-10z" fill="#286"/><path d="M266.971 722.604l-12.99-7.5-30.311 17.5 12.99 7.5z" fill="#8d7"/></svg>