<svg xmlns="http://www.w3.org/2000/svg" viewBox="591.731 715.104 86.603 90"><path d="M591.731 750.104v30l43.301 25v-30z" fill="#c63"/><path d="M635.032 805.104l43.301-25v-30l-43.301 25z" fill="#944"/><path d="M591.731 750.104l43.301 25 43.301-25-43.301-25z" fill="#5cf"/><path d="M635.032 775.104v10l-12.99-7.5v-10z" fill="#4af"/><path d="M635.032 785.104l43.301-25v-10l-43.301 25z" fill="#57d"/><path d="M622.042 722.604v10l30.311 17.5v-10z" fill="#1b7"/><path d="M665.343 732.604v10l-12.99 7.5v-10z" fill="#286"/><path d="M622.042 722.604l12.99-7.5 30.311 17.5-12.99 7.5z" fill="#8d7"/><path d="M591.731 740.103v10l30.311 17.5v-10z" fill="#1b7"/><path d="M635.032 750.103v10l-12.99 7.5v-10z" fill="#286"/><path d="M591.731 740.103l12.99-7.5 30.311 17.5-12.99 7.5z" fill="#8d7"/></svg>