<svg xmlns="http://www.w3.org/2000/svg" viewBox="686.993 715.104 86.603 90"><path d="M686.994 750.104v30l43.301 25v-30z" fill="#c63"/><path d="M730.295 805.104l43.301-25v-30l-43.301 25z" fill="#944"/><path d="M686.994 750.104l43.301 25 43.301-25-43.301-25z" fill="#5cf"/><path d="M730.295 775.104v10l-43.301-25v-10z" fill="#4af"/><path d="M730.295 785.104l12.99-7.5v-10l-12.99 7.5z" fill="#57d"/><path d="M730.295 750.104v10l12.99 7.5v-10z" fill="#1b7"/><path d="M773.596 740.104v10l-30.311 17.5v-10z" fill="#286"/><path d="M773.596 740.104l-12.99-7.5-30.311 17.5 12.99 7.5z" fill="#8d7"/><path d="M699.984 732.604v10l12.99 7.5v-10z" fill="#1b7"/><path d="M743.285 722.604v10l-30.311 17.5v-10z" fill="#286"/><path d="M743.285 722.604l-12.99-7.5-30.311 17.5 12.99 7.5z" fill="#8d7"/></svg>