<svg xmlns="http://www.w3.org/2000/svg" viewBox="20.154 518.021 86.603 90"><path d="M63.455 568.021l-43.301-25 43.301-25 43.301 25z" fill="#e94"/><path d="M20.154 543.021v40l43.301 25v-40z" fill="#c63"/><path d="M63.455 608.021l43.301-25v-40l-43.301 25z" fill="#944"/><path d="M93.766 560.521l12.99-7.5v-10l-12.99 7.5z" fill="#286"/><path d="M93.766 550.521l-30.311-17.5-30.311 17.5-12.99-7.5 43.301-25 43.301 25z" fill="#8d7"/><path d="M63.455 578.021l-12.99-7.5v-10l12.99 7.5z" fill="#1b7"/><path d="M63.455 568.021l12.99-7.5-12.99-7.5-12.99 7.5z" fill="#8d7"/><path d="M76.446 560.521v10l-12.99 7.5v-10z" fill="#286"/><path d="M33.144 560.521l-12.99-7.5v-10l12.99 7.5z" fill="#1b7"/></svg>