<svg xmlns="http://www.w3.org/2000/svg" viewBox="115.417 518.021 86.603 90"><path d="M158.718 568.021l-43.301-25 43.301-25 43.301 25z" fill="#e94"/><path d="M202.019 543.021v40l-43.301 25v-40z" fill="#944"/><path d="M158.718 608.021l-43.301-25v-30l43.301 25z" fill="#c63"/><path d="M171.708 560.521v10l-12.99 7.5v-10z" fill="#286"/><path d="M189.028 550.521l12.99-7.5-12.99-7.5-12.99 7.5z" fill="#8d7"/><path d="M202.019 543.021v10l-12.99 7.5v-10z" fill="#286"/><path d="M158.718 568.021l12.99-7.5-30.311-17.5 30.311-17.5-12.99-7.5-43.301 25z" fill="#8d7"/><path d="M158.718 578.021l-43.301-25v-10l43.301 25z" fill="#1b7"/></svg>