<svg xmlns="http://www.w3.org/2000/svg" viewBox="401.205 518.021 86.603 90"><path d="M444.506 568.021l-43.301-25 43.301-25 43.301 25z" fill="#e94"/><path d="M401.205 543.021v40l43.301 25v-40z" fill="#c63"/><path d="M444.506 608.021l43.301-25v-40l-43.301 25z" fill="#944"/><path d="M474.817 560.521l12.99-7.5v-10l-12.99 7.5z" fill="#286"/><path d="M474.817 550.521l-43.301-25 12.99-7.5 43.301 25z" fill="#8d7"/><path d="M444.506 578.021l-12.99-7.5v-10l12.99 7.5z" fill="#1b7"/><path d="M444.506 568.021l12.99-7.5-12.99-7.5-12.99 7.5z" fill="#8d7"/><path d="M457.497 560.521v10l-12.99 7.5v-10z" fill="#286"/><path d="M414.195 560.521l-12.99-7.5v-10l12.99 7.5z" fill="#1b7"/><path d="M414.195 550.521l12.99-7.5-12.99-7.5-12.99 7.5z" fill="#8d7"/></svg>