<svg xmlns="http://www.w3.org/2000/svg" viewBox="9.583 15.521 86.604 80"><path d="M9.584 50.521v20l43.301 25v-20z" fill="#c63"/><path d="M52.885 95.521l43.301-25v-20l-43.301 25z" fill="#944"/><path d="M22.55 67.881l-12.966-7.36v-10l12.966 7.36z" fill="#4af"/><path d="M96.186 50.521l-43.301 25-43.301-25 43.301-25z" fill="#5cf"/><path d="M52.885 85.521l30.311-17.5v-10l-30.311 17.5z" fill="#57d"/><path d="M52.885 85.521l-12.966-7.36-.024-10.14 12.99 7.5z" fill="#4af"/><path d="M52.885 40.521l-12.99-7.5v-10l12.99 7.5z" fill="#1b7"/><path d="M52.885 30.521l12.99-7.5-12.99-7.5-12.99 7.5z" fill="#8d7"/><path d="M65.876 23.021v10l-12.99 7.5v-10z" fill="#286"/><g transform="matrix(-1 0 0 1 -1861.0311 -3669.4791)"><path d="M-1900.926 3727.5l17.321-10-43.301-25-17.32 10z" fill="#e94"/><path d="M-1944.227 3702.5v10l43.301 25v-10z" fill="#944"/><path d="M-1900.926 3747.5l17.321-10v-20l-17.321 10z" fill="#c63"/></g><path d="M83.196 58.021l-12.99-7.5v-10l12.99 7.5z" fill="#1b7"/><path d="M83.196 48.021l12.99-7.5-12.99-7.5-12.99 7.5z" fill="#8d7"/><path d="M96.187 40.521v10l-12.99 7.5v-10z" fill="#286"/></svg>