<svg xmlns="http://www.w3.org/2000/svg" viewBox="485.898 43.021 86.602 52.5"><path d="M572.5 70.52l-43.301 25-43.301-25 43.301-25z" fill="#5cf"/><path d="M498.887 78.021l-12.99-7.5v-10l12.99 7.5z" fill="#1b7"/><path d="M498.887 68.021l12.99-7.5-12.99-7.5-12.99 7.5z" fill="#8d7"/><path d="M511.878 60.521v10l-12.99 7.5v-10z" fill="#286"/><g transform="matrix(-1 0 0 1 -1384.7176 -3649.4791)"><path d="M-1900.926 3727.5l17.321-10-43.301-25-17.32 10z" fill="#e94"/><path d="M-1944.227 3702.5v10l43.301 25v-10z" fill="#944"/><path d="M-1900.926 3737.5l17.321-10v-10l-17.321 10z" fill="#c63"/></g><path d="M529.198 95.521l-12.99-7.5v-10l12.99 7.5z" fill="#1b7"/><path d="M529.198 85.521l12.99-7.5-12.99-7.5-12.99 7.5z" fill="#8d7"/><path d="M542.189 78.021v10l-12.99 7.5v-10z" fill="#286"/></svg>