<svg xmlns="http://www.w3.org/2000/svg" viewBox="9.583 105.521 86.603 80"><path d="M9.583 140.521v20l43.301 25v-20z" fill="#c63"/><path d="M52.884 185.521l43.301-25v-20l-43.301 25z" fill="#944"/><path d="M52.885 175.521l-30.311-17.5v-10l30.311 17.5z" fill="#4af"/><path d="M96.186 140.521l-43.301 25-43.301-25 43.301-25z" fill="#5cf"/><path d="M52.885 175.521l12.99-7.5v-10l-12.99 7.5zm30.31-17.499l12.99-7.5v-10l-12.99 7.5z" fill="#57d"/><path d="M52.884 130.521l-12.99-7.5v-10l12.99 7.5z" fill="#1b7"/><path d="M52.884 120.521l12.99-7.5-12.99-7.5-12.99 7.5z" fill="#8d7"/><path d="M65.875 113.021v10l-12.99 7.5v-10z" fill="#286"/><path d="M65.875 148.021l17.321-10-43.301-25-17.32 10z" fill="#e94"/><path d="M22.574 123.021v10l43.301 25v-10z" fill="#c63"/><path d="M65.875 168.021l17.321-10v-20l-17.321 10z" fill="#944"/><path d="M22.574 148.021l-12.99-7.5v-10l12.99 7.5z" fill="#1b7"/><path d="M22.574 138.021l12.99-7.5-12.99-7.5-12.99 7.5z" fill="#8d7"/><path d="M35.565 130.521v10l-12.99 7.5v-10z" fill="#286"/></svg>