<svg xmlns="http://www.w3.org/2000/svg" viewBox="390.634 123.02 86.603 62.5"><path d="M433.936 185.521l-43.301-25v-10l43.301 25z" fill="#4af"/><path d="M477.237 150.521l-43.301 25-43.301-25 43.301-25z" fill="#5cf"/><path d="M433.936 185.521l43.301-25v-10l-43.301 25z" fill="#57d"/><path d="M464.246 158.021l-12.99-7.5v-10l12.99 7.5z" fill="#1b7"/><path d="M464.246 148.021l12.99-7.5-12.99-7.5-12.99 7.5z" fill="#8d7"/><path d="M477.237 140.521v10l-12.99 7.5v-10z" fill="#286"/><path d="M446.926 158.021l17.321-10-43.301-25-17.32 10z" fill="#e94"/><path d="M403.625 133.021v10l43.301 25v-10z" fill="#c63"/><path d="M446.926 168.021l17.321-10v-10l-17.321 10z" fill="#944"/><path d="M433.935 175.521l-12.99-7.5v-10l12.99 7.5z" fill="#1b7"/><path d="M433.935 165.521l12.99-7.5-12.99-7.5-12.99 7.5z" fill="#8d7"/><path d="M446.926 158.021v10l-12.99 7.5v-10z" fill="#286"/><path d="M433.936 185.521l43.301-25v-10l-43.301 25z" fill="#944"/><path d="M420.946 168.021v10l12.99 7.5v-10z" fill="#c63"/></svg>