<svg xmlns="http://www.w3.org/2000/svg" viewBox="485.897 215.521 86.603 60"><path d="M572.499 250.521l-43.301 25-43.301-25 43.301-25z" fill="#5cf"/><path d="M559.509 258.021l-12.99-7.5v-10l12.99 7.5z" fill="#1b7"/><path d="M559.509 248.021l12.99-7.5-12.99-7.5-12.99 7.5z" fill="#8d7"/><path d="M572.5 240.521v10l-12.99 7.5v-10z" fill="#286"/><path d="M529.198 240.521l-12.99-7.5v-10l12.99 7.5z" fill="#1b7"/><path d="M529.198 230.521l12.99-7.5-12.99-7.5-12.99 7.5z" fill="#8d7"/><path d="M542.189 223.021v10l-12.99 7.5v-10z" fill="#286"/><path d="M542.189 258.021l17.321-10-43.301-25-17.32 10z" fill="#e94"/><path d="M498.888 233.021v10l43.301 25v-10z" fill="#c63"/><path d="M542.189 268.021l17.321-10v-10l-17.321 10z" fill="#944"/><path d="M498.888 258.021l-12.99-7.5v-10l12.99 7.5z" fill="#1b7"/><path d="M498.888 248.021l12.99-7.5-12.99-7.5-12.99 7.5z" fill="#8d7"/><path d="M511.879 240.521v10l-12.99 7.5v-10z" fill="#286"/><path d="M529.198 275.521l-12.99-7.5v-10l12.99 7.5z" fill="#1b7"/><path d="M529.198 265.521l12.99-7.5-12.99-7.5-12.99 7.5z" fill="#8d7"/><path d="M542.189 258.021v10l-12.99 7.5v-10z" fill="#286"/></svg>