<svg xmlns="http://www.w3.org/2000/svg" viewBox="104.846 19.237 86.604 80.001"><path d="M104.852 54.236v20l43.301 25v-10z" fill="#c63"/><path d="M148.149 99.238l43.301-25v-10l-43.301 25z" fill="#944"/><path d="M148.149 89.238l-43.301-35 43.301-25 43.301 35z" fill="#e94"/><path d="M148.148 99.238l-43.301-35v-10l43.301 35z" fill="#4af"/><path d="M191.449 64.238l-43.301 25-43.301-35 43.301-25z" fill="#5cf"/><path d="M148.148 99.238l43.301-25v-10l-43.301 25z" fill="#57d"/><path d="M148.147 47.237l-12.99-10.5v-10l12.99 10.5z" fill="#1b7"/><path d="M148.147 37.237l12.99-7.5-12.99-10.5-12.99 7.5z" fill="#8d7"/><path d="M161.138 29.737v10l-12.99 7.5v-10z" fill="#286"/><path d="M161.138 71.737l17.32-10-43.301-35-17.32 10z" fill="#e94"/><path d="M117.836 36.737v10l43.301 35v-10z" fill="#c63"/><path d="M161.138 71.737v20l17.32-10v-20z" fill="#944"/><path d="M117.837 64.737l-12.99-10.5v-10l12.99 10.5z" fill="#1b7"/><path d="M117.837 54.737l12.99-7.5-12.99-10.5-12.99 7.5z" fill="#8d7"/><path d="M130.828 47.237v10l-12.99 7.5v-10z" fill="#286"/><path d="M117.837 74.737l-12.99-10.5v-10l12.99 10.5z" fill="#c63"/></svg>