<svg xmlns="http://www.w3.org/2000/svg" viewBox="390.635 26.737 86.604 72.501"><path d="M390.64 54.236v20l43.301 25v-10z" fill="#c63"/><path d="M433.937 99.238l43.301-25v-10l-43.301 25z" fill="#944"/><path d="M433.937 89.238l-43.301-35 43.301-25 43.301 35z" fill="#e94"/><path d="M433.937 99.238l-43.301-35v-10l43.301 35z" fill="#4af"/><path d="M477.238 64.238l-43.301 25-43.301-35 43.301-25z" fill="#5cf"/><path d="M433.937 99.238l43.301-25v-10l-43.301 25z" fill="#57d"/><path d="M464.246 71.737l-12.99-10.5v-10l12.99 10.5z" fill="#1b7"/><path d="M464.246 61.737l12.99-7.5-12.99-10.5-12.99 7.5z" fill="#8d7"/><path d="M477.237 54.237v10l-12.99 7.5v-10z" fill="#286"/><path d="M446.926 71.737l17.32-10-43.301-35-17.32 10z" fill="#e94"/><path d="M403.624 36.737v10l43.301 35v-10z" fill="#c63"/><path d="M446.926 71.737v10l17.32-10v-10z" fill="#944"/><path d="M433.935 89.237l-12.99-10.5v-10l12.99 10.5z" fill="#1b7"/><path d="M433.935 79.237l12.99-7.5-12.99-10.5-12.99 7.5z" fill="#8d7"/><path d="M446.926 71.737v10l-12.99 7.5v-10z" fill="#286"/><path d="M433.936 99.237l-12.99-10.5v-10l12.99 10.5z" fill="#c63"/><path d="M433.936 89.237v10l43.301-25v-10z" fill="#944"/></svg>