<svg xmlns="http://www.w3.org/2000/svg" viewBox="485.897 36.737 86.603 62.5"><path d="M485.898 64.238v10l43.301 25z" fill="#4af"/><path d="M529.199 99.238l-43.301-35 43.301-25 43.301 35z" fill="#5cf"/><path d="M559.509 81.737l-12.99-10.5v-10l12.99 10.5z" fill="#1b7"/><path d="M559.509 71.737l12.99-7.5-12.99-10.5-12.99 7.5z" fill="#8d7"/><path d="M572.5 64.237v10l-12.99 7.5v-10z" fill="#286"/><path d="M542.189 81.737l17.32-10-43.301-35-17.32 10z" fill="#e94"/><path d="M498.887 46.737v10l43.301 35v-10z" fill="#c63"/><path d="M542.189 81.737v10l17.32-10v-10z" fill="#944"/><path d="M529.198 99.237l-12.99-10.5v-10l12.99 10.5z" fill="#1b7"/><path d="M529.198 89.237l12.99-7.5-12.99-10.5-12.99 7.5z" fill="#8d7"/><path d="M542.189 81.737v10l-12.99 7.5v-10z" fill="#286"/><path d="M516.208 91.737v-3l12.99 10.5z" fill="#c63"/></svg>