<svg xmlns="http://www.w3.org/2000/svg" viewBox="9.582 109.237 86.604 90.001"><path d="M9.583 154.238v20l43.301 25v-20z" fill="#c63"/><path d="M52.884 199.238l43.301-25v-30l-43.3 35z" fill="#944"/><path d="M52.883 179.238l-43.301-25 43.301-35 43.301 25z" fill="#e94"/><path d="M52.885 179.238l-43.301-25v10l43.301 25z" fill="#4af"/><path d="M96.186 144.238l-43.301 35-43.301-25 43.301-35z" fill="#5cf"/><path d="M52.885 189.238l43.301-35v-10l-43.301 35z" fill="#57d"/><path d="M52.884 137.237l-12.99-7.5v-10l12.99 7.5z" fill="#1b7"/><path d="M52.884 127.237l12.99-10.5-12.99-7.5-12.99 10.5z" fill="#8d7"/><path d="M65.875 116.737v10l-12.99 10.5v-10z" fill="#286"/><path d="M39.894 161.737l-17.32-10 43.301-35 17.32 10z" fill="#e94"/><path d="M22.573 151.737v20l17.321 10v-20z" fill="#c63"/><path d="M39.894 161.737v10l43.301-35v-10z" fill="#944"/><path d="M83.195 154.737l-12.99-7.5v-10l12.99 7.5z" fill="#1b7"/><path d="M83.195 144.737l12.99-10.5-12.99-7.5-12.99 10.5z" fill="#8d7"/><path d="M96.186 134.237v10l-12.99 10.5v-10z" fill="#286"/><path d="M83.196 154.737v10l12.99-10.5v-10z" fill="#944"/></svg>