<svg xmlns="http://www.w3.org/2000/svg" viewBox="104.845 119.237 86.604 80.001"><path d="M104.846 164.238v10l43.301 25v-10z" fill="#c63"/><path d="M148.147 199.238l43.301-25v-20l-43.301 35z" fill="#944"/><path d="M148.146 189.238l-43.301-25 43.301-35 43.301 25z" fill="#e94"/><path d="M148.148 189.238l-43.301-25v10l43.301 25z" fill="#4af"/><path d="M191.449 154.238l-43.301 35-43.301-25 43.301-35z" fill="#5cf"/><path d="M148.148 199.238l43.301-35v-10l-43.301 35z" fill="#57d"/><path d="M148.147 147.237l-12.99-7.5v-10l12.99 7.5z" fill="#1b7"/><path d="M148.147 137.237l12.99-10.5-12.99-7.5-12.99 10.5z" fill="#8d7"/><path d="M161.138 126.737v10l-12.99 10.5v-10z" fill="#286"/><path d="M135.157 171.737l-17.32-10 43.301-35 17.32 10z" fill="#e94"/><path d="M117.836 161.737v20l17.321 10v-20z" fill="#c63"/><path d="M135.157 171.737v10l43.301-35v-10z" fill="#944"/><path d="M178.458 164.737l-12.99-7.5v-10l12.99 7.5z" fill="#1b7"/><path d="M178.458 154.737l12.99-10.5-12.99-7.5-12.99 10.5z" fill="#8d7"/><path d="M191.449 144.237v10l-12.99 10.5v-10z" fill="#286"/><path d="M178.459 164.737v10l12.99-10.5v-10z" fill="#944"/></svg>