<svg xmlns="http://www.w3.org/2000/svg" viewBox="390.634 126.737 86.604 72.501"><path d="M390.635 164.238v10l43.301 25v-10z" fill="#c63"/><path d="M433.936 199.238l43.301-25v-20l-43.301 35z" fill="#944"/><path d="M433.935 189.238l-43.301-25 43.301-35 43.301 25z" fill="#e94"/><path d="M433.937 189.238l-43.301-25v10l43.301 25z" fill="#4af"/><path d="M477.238 154.238l-43.301 35-43.301-25 43.301-35z" fill="#5cf"/><path d="M433.937 199.238l43.301-35v-10l-43.301 35z" fill="#57d"/><path d="M403.625 171.737l-12.99-7.5v-10l12.99 7.5z" fill="#1b7"/><path d="M403.625 161.737l12.99-10.5-12.99-7.5-12.99 10.5z" fill="#8d7"/><path d="M416.616 151.237v10l-12.99 10.5v-10z" fill="#286"/><path d="M420.945 171.737l-17.32-10 43.301-35 17.32 10z" fill="#e94"/><path d="M403.624 161.737v10l17.321 10v-10z" fill="#c63"/><path d="M420.945 171.737v10l43.301-35v-10z" fill="#944"/><path d="M433.936 189.237l-12.99-7.5v-10l12.99 7.5z" fill="#1b7"/><path d="M433.936 179.237l12.99-10.5-12.99-7.5-12.99 10.5z" fill="#8d7"/><path d="M446.927 168.737v10l-12.99 10.5v-10z" fill="#286"/><path d="M433.936 189.237v10l12.99-10.5v-10z" fill="#944"/><path d="M390.635 164.237v10l43.301 25v-10z" fill="#c63"/></svg>