<svg xmlns="http://www.w3.org/2000/svg" viewBox="9.584 226.737 86.604 72.501"><path d="M9.584 254.237l.001 20.001 43.301 25v-30z" fill="#c63"/><path d="M52.886 299.238l43.301-25v-30l-43.301 25z" fill="#944"/><path d="M52.885 269.238l-43.301-15 43.301-25 43.301 15z" fill="#e94"/><path d="M52.885 279.238l-43.301-15v-10l43.301 15z" fill="#4af"/><path d="M96.186 244.238l-43.301 25-43.301-15 43.301-25z" fill="#5cf"/><path d="M52.885 279.238l43.301-25v-10l-43.301 25z" fill="#57d"/><path d="M83.195 251.737l-12.99-4.5v-10l12.99 4.5z" fill="#1b7"/><path d="M83.195 241.737l12.99-7.5-12.99-4.5-12.99 7.5z" fill="#8d7"/><path d="M96.186 234.237v10l-12.99 7.5v-10z" fill="#286"/><path d="M65.875 251.737l17.32-10-43.301-15-17.32 10z" fill="#e94"/><path d="M22.573 236.737v10l43.301 15v-10z" fill="#c63"/><path d="M65.875 251.737v10l17.32-10v-10z" fill="#944"/><path d="M52.884 269.237l-12.99-4.5v-10l12.99 4.5z" fill="#1b7"/><path d="M52.884 259.237l12.99-7.5-12.99-4.5-12.99 7.5z" fill="#8d7"/><path d="M65.875 251.737v10l-12.99 7.5v-10z" fill="#286"/><path d="M52.885 269.237v10l43.301-25v-10z" fill="#944"/><path d="M39.894 264.737v10l12.99 4.5v-10z" fill="#c63"/></svg>