<svg xmlns="http://www.w3.org/2000/svg" viewBox="295.372 219.238 86.604 80"><path d="M295.372 254.237l.001 20.001 43.301 25v-30z" fill="#c63"/><path d="M338.674 299.238l43.301-25v-30l-43.301 25z" fill="#944"/><path d="M338.673 269.238l-43.301-15 43.301-25 43.301 15z" fill="#e94"/><path d="M338.674 279.238l-43.301-15v-10l43.301 15z" fill="#4af"/><path d="M381.975 244.238l-43.301 25-43.301-15 43.301-25z" fill="#5cf"/><path d="M338.674 279.238l43.301-25v-10l-43.301 25z" fill="#57d"/><path d="M338.673 241.237l-12.99-4.5v-10l12.99 4.5z" fill="#1b7"/><path d="M338.673 231.237l12.99-7.5-12.99-4.5-12.99 7.5z" fill="#8d7"/><path d="M351.664 223.737v10l-12.99 7.5v-10z" fill="#286"/><path d="M351.663 251.737l17.32-10-43.301-15-17.32 10z" fill="#e94"/><path d="M308.361 236.737v10l43.301 15v-10z" fill="#c63"/><path d="M351.663 251.737v20l17.32-10v-20z" fill="#944"/><path d="M308.362 258.737l-12.99-4.5v-10l12.99 4.5z" fill="#1b7"/><path d="M308.362 248.737l12.99-7.5-12.99-4.5-12.99 7.5z" fill="#8d7"/><path d="M321.353 241.237v10l-12.99 7.5v-10z" fill="#286"/><path d="M295.372 254.237v10l12.99 4.5v-10z" fill="#c63"/></svg>