<svg xmlns="http://www.w3.org/2000/svg" viewBox="104.846 336.738 86.604 62.501"><path d="M104.848 354.238v20l43.301 25v-20z" fill="#c63"/><path d="M148.149 399.238l43.301-25v-10l-43.3 15z" fill="#944"/><path d="M148.148 379.238l-43.301-25 43.302-15 43.301 25z" fill="#e94"/><path d="M148.148 389.237l-43.301-25v-10l43.301 25z" fill="#4af"/><path d="M191.449 364.237l-43.301 15-43.301-25 43.301-15z" fill="#5cf"/><path d="M148.148 389.237l43.301-15v-10l-43.301 15z" fill="#57d"/><path d="M117.837 361.737l-12.99-7.5v-10l12.99 7.5z" fill="#1b7"/><path d="M117.837 351.737l12.99-4.5-12.99-7.5-12.99 4.5z" fill="#8d7"/><path d="M130.828 347.237v10l-12.99 4.5v-10z" fill="#286"/><path d="M135.157 361.737l-17.32-10 43.301-15 17.32 10z" fill="#e94"/><path d="M117.836 351.737v10l17.321 10v-10z" fill="#c63"/><path d="M135.157 361.737v10l43.301-15v-10z" fill="#944"/><path d="M148.147 379.237l-12.99-7.5v-10l12.99 7.5z" fill="#1b7"/><path d="M148.147 369.237l12.99-4.5-12.99-7.5-12.99 4.5z" fill="#8d7"/><path d="M161.138 364.737v10l-12.99 4.5v-10z" fill="#286"/><path d="M104.846 354.237v10l43.301 25v-10z" fill="#c63"/><path d="M148.148 379.237v10l12.99-4.5v-10z" fill="#944"/></svg>