<svg xmlns="http://www.w3.org/2000/svg" viewBox="200.109 346.737 86.604 52.501"><path d="M200.11 364.238v10l43.301 25v-10z" fill="#4af"/><path d="M243.411 399.238l43.301-25-43.301 15z" fill="#57d"/><path d="M243.41 389.238l-43.301-25 43.302-15 43.301 25z" fill="#5cf"/><path d="M213.1 371.737l-12.99-7.5v-10l12.99 7.5z" fill="#1b7"/><path d="M213.1 361.737l12.99-4.5-12.99-7.5-12.99 4.5z" fill="#8d7"/><path d="M226.091 357.237v10l-12.99 4.5v-10z" fill="#286"/><path d="M230.42 371.737l-17.32-10 43.301-15 17.32 10z" fill="#e94"/><path d="M213.099 361.737v10l17.321 10v-10z" fill="#c63"/><path d="M230.42 371.737v10l43.301-15v-10z" fill="#944"/><path d="M243.41 389.237l-12.99-7.5v-10l12.99 7.5z" fill="#1b7"/><path d="M243.41 379.237l12.99-4.5-12.99-7.5-12.99 4.5z" fill="#8d7"/><path d="M256.401 374.737v10l-12.99 4.5v-10z" fill="#286"/><path d="M200.109 364.237v10l43.301 25v-10z" fill="#c63"/><path d="M243.411 389.237v10l12.99-7.5v-7z" fill="#944"/></svg>