<svg xmlns="http://www.w3.org/2000/svg" viewBox="390.635 329.237 86.603 70.001"><path d="M390.636 354.238v20l43.301 25v-20z" fill="#c63"/><path d="M433.937 399.238l43.301-25v-10l-43.3 15z" fill="#944"/><path d="M433.936 379.238l-43.301-25 43.302-15 43.301 25z" fill="#e94"/><path d="M433.937 389.237l-43.301-25v-10l43.301 25z" fill="#4af"/><path d="M477.238 364.237l-43.301 15-43.301-25 43.301-15z" fill="#5cf"/><path d="M433.937 389.237l43.301-15v-10l-43.301 15z" fill="#57d"/><path d="M433.936 351.237l-12.99-7.5v-10l12.99 7.5z" fill="#1b7"/><path d="M433.936 341.237l12.99-4.5-12.99-7.5-12.99 4.5z" fill="#8d7"/><path d="M446.927 336.737v10l-12.99 4.5v-10z" fill="#286"/><path d="M420.945 361.737l-17.32-10 43.301-15 17.32 10z" fill="#e94"/><path d="M403.624 351.737v20l17.321 10v-20z" fill="#c63"/><path d="M420.945 361.737v10l43.301-15v-10z" fill="#944"/><path d="M464.246 368.737l-12.99-7.5v-10l12.99 7.5z" fill="#1b7"/><path d="M464.246 358.737l12.99-4.5-12.99-7.5-12.99 4.5z" fill="#8d7"/><path d="M477.237 354.237v10l-12.99 4.5v-10z" fill="#286"/><path d="M464.247 368.737v10l12.99-4.5v-10z" fill="#944"/></svg>