<svg xmlns="http://www.w3.org/2000/svg" viewBox="485.898 339.237 86.604 60"><path d="M485.899 364.238v10l43.301 25v-10z" fill="#4af"/><path d="M529.2 399.238l43.301-25-43.301 15z" fill="#57d"/><path d="M529.199 389.238l-43.301-25 43.302-15 43.301 25z" fill="#5cf"/><path d="M529.199 361.237l-12.99-7.5v-10l12.99 7.5z" fill="#1b7"/><path d="M529.199 351.237l12.99-4.5-12.99-7.5-12.99 4.5z" fill="#8d7"/><path d="M542.19 346.737v10l-12.99 4.5v-10z" fill="#286"/><path d="M516.208 371.737l-17.32-10 43.301-15 17.32 10z" fill="#e94"/><path d="M498.887 361.737v20l17.321 10v-20z" fill="#c63"/><path d="M516.208 371.737v10l43.301-15v-10z" fill="#944"/><path d="M559.509 378.737l-12.99-7.5v-10l12.99 7.5z" fill="#1b7"/><path d="M559.509 368.737l12.99-4.5-12.99-7.5-12.99 4.5z" fill="#8d7"/><path d="M572.5 364.237v10l-12.99 4.5v-10z" fill="#286"/><path d="M559.51 378.737v3l12.99-7.5z" fill="#944"/></svg>