<svg xmlns="http://www.w3.org/2000/svg" viewBox="9.584 409.303 86.603 90"><path d="M9.588 444.302v30l43.301 25v-20z" fill="#c63"/><path d="M52.885 499.304l43.301-25v-20l-43.301 25z" fill="#944"/><path d="M52.885 479.304l-43.301-35 43.301-25 43.301 35z" fill="#e94"/><path d="M52.885 489.304l-43.301-35v-10l43.301 35z" fill="#4af"/><path d="M96.186 454.304l-43.301 25-43.301-35 43.301-25z" fill="#5cf"/><path d="M52.885 489.304l43.301-25v-10l-43.301 25z" fill="#57d"/><path d="M83.195 461.737l-12.99-10.5v-10l12.99 10.5z" fill="#1b7"/><path d="M83.195 451.737l12.99-7.5-12.99-10.5-12.99 7.5z" fill="#8d7"/><path d="M96.186 444.237v10l-12.99 7.5v-10z" fill="#286"/><path d="M52.884 437.303l-12.99-10.5v-10l12.99 10.5z" fill="#1b7"/><path d="M52.884 427.303l12.99-7.5-12.99-10.5-12.99 7.5z" fill="#8d7"/><path d="M65.875 419.803v10l-12.99 7.5v-10z" fill="#286"/><path d="M65.875 461.803l17.32-10-43.301-35-17.32 10z" fill="#e94"/><path d="M22.573 426.803v10l43.301 35v-10z" fill="#c63"/><path d="M65.875 461.803v9.934l17.32-10v-9.934z" fill="#944"/><path d="M22.574 454.803l-12.99-10.5v-10l12.99 10.5z" fill="#1b7"/><path d="M22.574 444.803l12.99-7.5-12.99-10.5-12.99 7.5z" fill="#8d7"/><path d="M35.565 437.303v10l-12.99 7.5v-10z" fill="#286"/><path d="M22.574 464.803l-12.99-10.5v-10l12.99 10.5z" fill="#c63"/><path d="M52.884 479.237l-12.99-10.5v-10l12.99 10.5z" fill="#1b7"/><path d="M52.884 469.237l12.99-7.5-12.99-10.5-12.99 7.5z" fill="#8d7"/><path d="M65.875 461.737v10l-12.99 7.5v-10z" fill="#286"/><path d="M52.885 489.237l-12.99-10.5v-10l12.99 10.5z" fill="#c63"/><path d="M52.885 479.237v9.934l43.301-24.934v-9.934z" fill="#944"/></svg>