<svg xmlns="http://www.w3.org/2000/svg" viewBox="104.846 419.303 86.604 80.001"><path d="M104.852 454.302v20l43.301 25v-10z" fill="#c63"/><path d="M148.149 499.304l43.301-25v-10l-43.301 25z" fill="#944"/><path d="M148.149 489.304l-43.301-35 43.301-25 43.301 35z" fill="#e94"/><path d="M148.148 499.304l-43.301-35v-10l43.301 35z" fill="#4af"/><path d="M191.449 464.304l-43.301 25-43.301-35 43.301-25z" fill="#5cf"/><path d="M148.148 499.304l43.301-25v-10l-43.301 25z" fill="#57d"/><path d="M178.458 471.737l-12.99-10.5v-10l12.99 10.5z" fill="#1b7"/><path d="M178.458 461.737l12.99-7.5-12.99-10.5-12.99 7.5z" fill="#8d7"/><path d="M191.449 454.237v10l-12.99 7.5v-10z" fill="#286"/><path d="M148.147 447.303l-12.99-10.5v-10l12.99 10.5z" fill="#1b7"/><path d="M148.147 437.303l12.99-7.5-12.99-10.5-12.99 7.5z" fill="#8d7"/><path d="M161.138 429.803v10l-12.99 7.5v-10z" fill="#286"/><path d="M161.138 471.803l17.32-10-43.301-35-17.32 10z" fill="#e94"/><path d="M117.836 436.803v10l43.301 35v-10z" fill="#c63"/><path d="M161.138 471.803v9.934l17.32-10v-9.934z" fill="#944"/><path d="M117.837 464.803l-12.99-10.5v-10l12.99 10.5z" fill="#1b7"/><path d="M117.837 454.803l12.99-7.5-12.99-10.5-12.99 7.5z" fill="#8d7"/><path d="M130.828 447.303v10l-12.99 7.5v-10z" fill="#286"/><path d="M117.837 474.803l-12.99-10.5v-10l12.99 10.5z" fill="#c63"/><path d="M148.147 489.237l-12.99-10.5v-10l12.99 10.5z" fill="#1b7"/><path d="M148.147 479.237l12.99-7.5-12.99-10.5-12.99 7.5z" fill="#8d7"/><path d="M161.138 471.737v10l-12.99 7.5v-10z" fill="#286"/><path d="M148.148 499.237l-12.99-10.5v-10l12.99 10.5z" fill="#c63"/><path d="M148.148 489.237v9.934l43.301-24.934v-9.934z" fill="#944"/></svg>