<svg xmlns="http://www.w3.org/2000/svg" viewBox="200.109 429.303 86.603 70"><path d="M200.109 464.304v10l43.301 25z" fill="#4af"/><path d="M243.41 499.304l-43.301-35 43.301-25 43.301 35z" fill="#5cf"/><path d="M273.721 481.737l-12.99-10.5v-10l12.99 10.5z" fill="#1b7"/><path d="M273.721 471.737l12.99-7.5-12.99-10.5-12.99 7.5z" fill="#8d7"/><path d="M286.712 464.237v10l-12.99 7.5v-10z" fill="#286"/><path d="M243.41 457.303l-12.99-10.5v-10l12.99 10.5z" fill="#1b7"/><path d="M243.41 447.303l12.99-7.5-12.99-10.5-12.99 7.5z" fill="#8d7"/><path d="M256.401 439.803v10l-12.99 7.5v-10z" fill="#286"/><path d="M256.401 481.803l17.32-10-43.301-35-17.32 10z" fill="#e94"/><path d="M213.099 446.803v10l43.301 35v-10z" fill="#c63"/><path d="M256.401 481.803v9.934l17.32-10v-9.934z" fill="#944"/><path d="M213.1 474.803l-12.99-10.5v-10l12.99 10.5z" fill="#1b7"/><path d="M213.1 464.803l12.99-7.5-12.99-10.5-12.99 7.5z" fill="#8d7"/><path d="M226.091 457.303v10l-12.99 7.5v-10z" fill="#286"/><path d="M213.1 481.737l-12.99-7.434v-10l12.99 10.5z" fill="#c63"/><path d="M243.41 499.237l-12.99-10.5v-10l12.99 10.5z" fill="#1b7"/><path d="M243.41 489.237l12.99-7.5-12.99-10.5-12.99 7.5z" fill="#8d7"/><path d="M256.401 481.737v10l-12.99 7.5v-10z" fill="#286"/><path d="M230.42 491.737v-3l12.99 10.5z" fill="#c63"/></svg>