<svg xmlns="http://www.w3.org/2000/svg" viewBox="295.372 419.237 86.604 80.067"><path d="M295.372 454.303l.001 20.001 43.301 25v-30z" fill="#c63"/><path d="M338.674 499.304l43.301-25v-30l-43.301 25z" fill="#944"/><path d="M338.673 469.304l-43.301-15 43.301-25 43.301 15z" fill="#e94"/><path d="M338.673 479.304l-43.301-15v-10l43.301 15z" fill="#4af"/><path d="M381.974 444.304l-43.301 25-43.301-15 43.301-25z" fill="#5cf"/><path d="M338.673 479.304l43.301-25v-10l-43.301 25z" fill="#57d"/><path d="M338.673 441.237l-12.99-4.5v-10l12.99 4.5z" fill="#1b7"/><path d="M338.673 431.237l12.99-7.5-12.99-4.5-12.99 7.5z" fill="#8d7"/><path d="M351.664 423.737v10l-12.99 7.5v-10z" fill="#286"/><path d="M368.983 451.803l-12.99-4.5v-10l12.99 4.5z" fill="#1b7"/><path d="M368.983 441.803l12.99-7.5-12.99-4.5-12.99 7.5z" fill="#8d7"/><path d="M381.974 434.303v10l-12.99 7.5v-10z" fill="#286"/><path d="M351.663 451.803l17.32-10-43.301-15-17.32 10z" fill="#e94"/><path d="M308.361 436.803v10l43.301 15v-10z" fill="#c63"/><path d="M351.663 451.803v10l17.32-10v-10z" fill="#944"/><path d="M338.672 469.303l-12.99-4.5v-10l12.99 4.5z" fill="#1b7"/><path d="M338.672 459.303l12.99-7.5-12.99-4.5-12.99 7.5z" fill="#8d7"/><path d="M351.663 451.803v10l-12.99 7.5v-10z" fill="#286"/><path d="M338.673 469.303v10l43.301-25v-10z" fill="#944"/><path d="M325.682 464.803v10l12.99 4.5v-10z" fill="#c63"/><path d="M308.362 458.737l-12.99-4.5v-10l12.99 4.5z" fill="#1b7"/><path d="M308.362 448.737l12.99-7.5-12.99-4.5-12.99 7.5z" fill="#8d7"/><path d="M321.353 441.237v10l-12.99 7.5v-10z" fill="#286"/><path d="M295.372 454.237v10l12.99 4.5v-10z" fill="#c63"/></svg>