<svg xmlns="http://www.w3.org/2000/svg" viewBox="295.371 519.237 86.604 80.067"><path d="M295.373 544.304v30l43.301 25v-30z" fill="#c63"/><path d="M338.674 599.304l43.301-25v-20l-43.301 15z" fill="#944"/><path d="M338.673 569.304l-43.301-25 43.302-15 43.301 25z" fill="#e94"/><path d="M338.673 579.304l-43.301-25v-10l43.301 25z" fill="#4af"/><path d="M381.974 554.304l-43.301 15-43.301-25 43.301-15z" fill="#5cf"/><path d="M338.673 579.304l43.301-15v-10l-43.301 15z" fill="#57d"/><path d="M338.672 541.237l-12.99-7.5v-10l12.99 7.5z" fill="#1b7"/><path d="M338.672 531.237l12.99-4.5-12.99-7.5-12.99 4.5z" fill="#8d7"/><path d="M351.663 526.737v10l-12.99 4.5v-10z" fill="#286"/><path d="M308.362 551.803l-12.99-7.5v-10l12.99 7.5z" fill="#1b7"/><path d="M308.362 541.803l12.99-4.5-12.99-7.5-12.99 4.5z" fill="#8d7"/><path d="M321.353 537.303v10l-12.99 4.5v-10z" fill="#286"/><path d="M325.682 551.803l-17.32-10 43.301-15 17.32 10z" fill="#e94"/><path d="M308.361 541.803v10l17.321 10v-10z" fill="#c63"/><path d="M325.682 551.803v10l43.301-15v-10z" fill="#944"/><path d="M338.672 569.303l-12.99-7.5v-10l12.99 7.5z" fill="#1b7"/><path d="M338.672 559.303l12.99-4.5-12.99-7.5-12.99 4.5z" fill="#8d7"/><path d="M351.663 554.803v10l-12.99 4.5v-10z" fill="#286"/><path d="M295.371 544.303v10l43.301 25v-10z" fill="#c63"/><path d="M338.673 569.303v10l12.99-4.5v-10z" fill="#944"/><path d="M368.983 558.737l-12.99-7.5v-10l12.99 7.5z" fill="#1b7"/><path d="M368.983 548.737l12.99-4.5-12.99-7.5-12.99 4.5z" fill="#8d7"/><path d="M381.974 544.237v10l-12.99 4.5v-10z" fill="#286"/><path d="M368.984 558.737v10l12.99-4.5v-10z" fill="#944"/></svg>