<svg xmlns="http://www.w3.org/2000/svg" viewBox="485.897 539.171 86.604 60.133"><path d="M485.898 564.304v10l43.301 25v-10z" fill="#4af"/><path d="M529.199 599.304l43.301-25-43.301 15z" fill="#57d"/><path d="M529.198 589.304l-43.301-25 43.302-15 43.301 25z" fill="#5cf"/><path d="M529.198 561.171l-12.99-7.5v-10l12.99 7.5z" fill="#1b7"/><path d="M529.198 551.171l12.99-4.5-12.99-7.5-12.99 4.5z" fill="#8d7"/><path d="M542.189 546.671v10l-12.99 4.5v-10z" fill="#286"/><path d="M498.888 571.737l-12.99-7.5v-10l12.99 7.5z" fill="#1b7"/><path d="M498.888 561.737l12.99-4.5-12.99-7.5-12.99 4.5z" fill="#8d7"/><path d="M511.879 557.237v10l-12.99 4.5v-10z" fill="#286"/><path d="M516.208 571.737l-17.32-10 43.301-15 17.32 10z" fill="#e94"/><path d="M498.887 561.737v10l17.321 10v-10z" fill="#c63"/><path d="M516.208 571.737v10l43.301-15v-10z" fill="#944"/><path d="M529.198 589.237l-12.99-7.5v-10l12.99 7.5z" fill="#1b7"/><path d="M529.198 579.237l12.99-4.5-12.99-7.5-12.99 4.5z" fill="#8d7"/><path d="M542.189 574.737v10l-12.99 4.5v-10z" fill="#286"/><path d="M485.897 564.237v10l43.301 25v-10z" fill="#c63"/><path d="M529.199 589.237v10l12.99-7.5v-7z" fill="#944"/><path d="M559.509 578.671l-12.99-7.5v-10l12.99 7.5z" fill="#1b7"/><path d="M559.509 568.671l12.99-4.5-12.99-7.5-12.99 4.5z" fill="#8d7"/><path d="M572.5 564.171v10l-12.99 4.5v-10z" fill="#286"/><path d="M559.51 578.671v3.066l12.99-7.566z" fill="#944"/></svg>